%TF.GenerationSoftware,KiCad,Pcbnew,6.0.0*%
%TF.CreationDate,2022-01-20T18:38:03-07:00*%
%TF.ProjectId,cr3-power-regulator,6372332d-706f-4776-9572-2d726567756c,rev?*%
%TF.SameCoordinates,Original*%
%TF.FileFunction,Legend,Top*%
%TF.FilePolarity,Positive*%
%FSLAX46Y46*%
G04 Gerber Fmt 4.6, Leading zero omitted, Abs format (unit mm)*
G04 Created by KiCad (PCBNEW 6.0.0) date 2022-01-20 18:38:03*
%MOMM*%
%LPD*%
G01*
G04 APERTURE LIST*
%ADD10C,0.150000*%
%ADD11C,0.120000*%
G04 APERTURE END LIST*
D10*
X168321053Y-84263832D02*
X168321053Y-84740022D01*
X167321053Y-84740022D01*
X167321053Y-84025736D02*
X167321053Y-83359070D01*
X168321053Y-83787641D01*
X168321053Y-82930498D02*
X168321053Y-82740022D01*
X168273434Y-82644784D01*
X168225815Y-82597165D01*
X168082958Y-82501927D01*
X167892482Y-82454308D01*
X167511530Y-82454308D01*
X167416292Y-82501927D01*
X167368673Y-82549546D01*
X167321053Y-82644784D01*
X167321053Y-82835260D01*
X167368673Y-82930498D01*
X167416292Y-82978117D01*
X167511530Y-83025736D01*
X167749625Y-83025736D01*
X167844863Y-82978117D01*
X167892482Y-82930498D01*
X167940101Y-82835260D01*
X167940101Y-82644784D01*
X167892482Y-82549546D01*
X167844863Y-82501927D01*
X167749625Y-82454308D01*
X168321053Y-81501927D02*
X168321053Y-82073355D01*
X168321053Y-81787641D02*
X167321053Y-81787641D01*
X167463911Y-81882879D01*
X167559149Y-81978117D01*
X167606768Y-82073355D01*
X167416292Y-81120974D02*
X167368673Y-81073355D01*
X167321053Y-80978117D01*
X167321053Y-80740022D01*
X167368673Y-80644784D01*
X167416292Y-80597165D01*
X167511530Y-80549546D01*
X167606768Y-80549546D01*
X167749625Y-80597165D01*
X168321053Y-81168594D01*
X168321053Y-80549546D01*
X168527700Y-73414853D02*
X168527700Y-73891043D01*
X167527700Y-73891043D01*
X167527700Y-73176757D02*
X167527700Y-72510091D01*
X168527700Y-72938662D01*
X167956272Y-71986281D02*
X167908653Y-72081519D01*
X167861034Y-72129138D01*
X167765796Y-72176757D01*
X167718177Y-72176757D01*
X167622939Y-72129138D01*
X167575320Y-72081519D01*
X167527700Y-71986281D01*
X167527700Y-71795805D01*
X167575320Y-71700567D01*
X167622939Y-71652948D01*
X167718177Y-71605329D01*
X167765796Y-71605329D01*
X167861034Y-71652948D01*
X167908653Y-71700567D01*
X167956272Y-71795805D01*
X167956272Y-71986281D01*
X168003891Y-72081519D01*
X168051510Y-72129138D01*
X168146748Y-72176757D01*
X168337224Y-72176757D01*
X168432462Y-72129138D01*
X168480081Y-72081519D01*
X168527700Y-71986281D01*
X168527700Y-71795805D01*
X168480081Y-71700567D01*
X168432462Y-71652948D01*
X168337224Y-71605329D01*
X168146748Y-71605329D01*
X168051510Y-71652948D01*
X168003891Y-71700567D01*
X167956272Y-71795805D01*
X168527700Y-70652948D02*
X168527700Y-71224376D01*
X168527700Y-70938662D02*
X167527700Y-70938662D01*
X167670558Y-71033900D01*
X167765796Y-71129138D01*
X167813415Y-71224376D01*
X167622939Y-70271995D02*
X167575320Y-70224376D01*
X167527700Y-70129138D01*
X167527700Y-69891043D01*
X167575320Y-69795805D01*
X167622939Y-69748186D01*
X167718177Y-69700567D01*
X167813415Y-69700567D01*
X167956272Y-69748186D01*
X168527700Y-70319615D01*
X168527700Y-69700567D01*
X185502602Y-88932261D02*
X185502602Y-87932261D01*
X185978792Y-88265595D02*
X185978792Y-88932261D01*
X185978792Y-88360833D02*
X186026411Y-88313214D01*
X186121650Y-88265595D01*
X186264507Y-88265595D01*
X186359745Y-88313214D01*
X186407364Y-88408452D01*
X186407364Y-88932261D01*
X186883554Y-88551309D02*
X187645459Y-88551309D01*
X185812126Y-85566881D02*
X185716888Y-85519261D01*
X185574031Y-85519261D01*
X185431173Y-85566881D01*
X185335935Y-85662119D01*
X185288316Y-85757357D01*
X185240697Y-85947833D01*
X185240697Y-86090690D01*
X185288316Y-86281166D01*
X185335935Y-86376404D01*
X185431173Y-86471642D01*
X185574031Y-86519261D01*
X185669269Y-86519261D01*
X185812126Y-86471642D01*
X185859745Y-86424023D01*
X185859745Y-86090690D01*
X185669269Y-86090690D01*
X186288316Y-86519261D02*
X186288316Y-85519261D01*
X186859745Y-86519261D01*
X186859745Y-85519261D01*
X187335935Y-86519261D02*
X187335935Y-85519261D01*
X187574031Y-85519261D01*
X187716888Y-85566881D01*
X187812126Y-85662119D01*
X187859745Y-85757357D01*
X187907364Y-85947833D01*
X187907364Y-86090690D01*
X187859745Y-86281166D01*
X187812126Y-86376404D01*
X187716888Y-86471642D01*
X187574031Y-86519261D01*
X187335935Y-86519261D01*
X185121650Y-82979261D02*
X185312126Y-82979261D01*
X185407364Y-83026881D01*
X185502602Y-83122119D01*
X185550221Y-83312595D01*
X185550221Y-83645928D01*
X185502602Y-83836404D01*
X185407364Y-83931642D01*
X185312126Y-83979261D01*
X185121650Y-83979261D01*
X185026411Y-83931642D01*
X184931173Y-83836404D01*
X184883554Y-83645928D01*
X184883554Y-83312595D01*
X184931173Y-83122119D01*
X185026411Y-83026881D01*
X185121650Y-82979261D01*
X186407364Y-83312595D02*
X186407364Y-83979261D01*
X185978792Y-83312595D02*
X185978792Y-83836404D01*
X186026411Y-83931642D01*
X186121650Y-83979261D01*
X186264507Y-83979261D01*
X186359745Y-83931642D01*
X186407364Y-83884023D01*
X186740697Y-83312595D02*
X187121650Y-83312595D01*
X186883554Y-82979261D02*
X186883554Y-83836404D01*
X186931173Y-83931642D01*
X187026411Y-83979261D01*
X187121650Y-83979261D01*
X187454983Y-83598309D02*
X188216888Y-83598309D01*
X185121650Y-80312261D02*
X185312126Y-80312261D01*
X185407364Y-80359881D01*
X185502602Y-80455119D01*
X185550221Y-80645595D01*
X185550221Y-80978928D01*
X185502602Y-81169404D01*
X185407364Y-81264642D01*
X185312126Y-81312261D01*
X185121650Y-81312261D01*
X185026411Y-81264642D01*
X184931173Y-81169404D01*
X184883554Y-80978928D01*
X184883554Y-80645595D01*
X184931173Y-80455119D01*
X185026411Y-80359881D01*
X185121650Y-80312261D01*
X186407364Y-80645595D02*
X186407364Y-81312261D01*
X185978792Y-80645595D02*
X185978792Y-81169404D01*
X186026411Y-81264642D01*
X186121650Y-81312261D01*
X186264507Y-81312261D01*
X186359745Y-81264642D01*
X186407364Y-81217023D01*
X186740697Y-80645595D02*
X187121650Y-80645595D01*
X186883554Y-80312261D02*
X186883554Y-81169404D01*
X186931173Y-81264642D01*
X187026411Y-81312261D01*
X187121650Y-81312261D01*
X187454983Y-80931309D02*
X188216888Y-80931309D01*
X187835935Y-81312261D02*
X187835935Y-80550357D01*
X185812126Y-77819881D02*
X185716888Y-77772261D01*
X185574031Y-77772261D01*
X185431173Y-77819881D01*
X185335935Y-77915119D01*
X185288316Y-78010357D01*
X185240697Y-78200833D01*
X185240697Y-78343690D01*
X185288316Y-78534166D01*
X185335935Y-78629404D01*
X185431173Y-78724642D01*
X185574031Y-78772261D01*
X185669269Y-78772261D01*
X185812126Y-78724642D01*
X185859745Y-78677023D01*
X185859745Y-78343690D01*
X185669269Y-78343690D01*
X186288316Y-78772261D02*
X186288316Y-77772261D01*
X186859745Y-78772261D01*
X186859745Y-77772261D01*
X187335935Y-78772261D02*
X187335935Y-77772261D01*
X187574031Y-77772261D01*
X187716888Y-77819881D01*
X187812126Y-77915119D01*
X187859745Y-78010357D01*
X187907364Y-78200833D01*
X187907364Y-78343690D01*
X187859745Y-78534166D01*
X187812126Y-78629404D01*
X187716888Y-78724642D01*
X187574031Y-78772261D01*
X187335935Y-78772261D01*
X185502602Y-76232261D02*
X185502602Y-75232261D01*
X185978792Y-75565595D02*
X185978792Y-76232261D01*
X185978792Y-75660833D02*
X186026411Y-75613214D01*
X186121650Y-75565595D01*
X186264507Y-75565595D01*
X186359745Y-75613214D01*
X186407364Y-75708452D01*
X186407364Y-76232261D01*
X186883554Y-75851309D02*
X187645459Y-75851309D01*
X187264507Y-76232261D02*
X187264507Y-75470357D01*
X171611120Y-70458603D02*
X171563501Y-70506222D01*
X171420644Y-70553841D01*
X171325406Y-70553841D01*
X171182549Y-70506222D01*
X171087311Y-70410984D01*
X171039692Y-70315746D01*
X170992073Y-70125270D01*
X170992073Y-69982413D01*
X171039692Y-69791937D01*
X171087311Y-69696699D01*
X171182549Y-69601461D01*
X171325406Y-69553841D01*
X171420644Y-69553841D01*
X171563501Y-69601461D01*
X171611120Y-69649080D01*
X172611120Y-70553841D02*
X172277787Y-70077651D01*
X172039692Y-70553841D02*
X172039692Y-69553841D01*
X172420644Y-69553841D01*
X172515882Y-69601461D01*
X172563501Y-69649080D01*
X172611120Y-69744318D01*
X172611120Y-69887175D01*
X172563501Y-69982413D01*
X172515882Y-70030032D01*
X172420644Y-70077651D01*
X172039692Y-70077651D01*
X172944454Y-69553841D02*
X173563501Y-69553841D01*
X173230168Y-69934794D01*
X173373025Y-69934794D01*
X173468263Y-69982413D01*
X173515882Y-70030032D01*
X173563501Y-70125270D01*
X173563501Y-70363365D01*
X173515882Y-70458603D01*
X173468263Y-70506222D01*
X173373025Y-70553841D01*
X173087311Y-70553841D01*
X172992073Y-70506222D01*
X172944454Y-70458603D01*
X174706358Y-69506222D02*
X173849216Y-70791937D01*
X175468263Y-69887175D02*
X175468263Y-70553841D01*
X175230168Y-69506222D02*
X174992073Y-70220508D01*
X175611120Y-70220508D01*
X177325406Y-70553841D02*
X176992073Y-70077651D01*
X176753978Y-70553841D02*
X176753978Y-69553841D01*
X177134930Y-69553841D01*
X177230168Y-69601461D01*
X177277787Y-69649080D01*
X177325406Y-69744318D01*
X177325406Y-69887175D01*
X177277787Y-69982413D01*
X177230168Y-70030032D01*
X177134930Y-70077651D01*
X176753978Y-70077651D01*
X178134930Y-70506222D02*
X178039692Y-70553841D01*
X177849216Y-70553841D01*
X177753978Y-70506222D01*
X177706358Y-70410984D01*
X177706358Y-70030032D01*
X177753978Y-69934794D01*
X177849216Y-69887175D01*
X178039692Y-69887175D01*
X178134930Y-69934794D01*
X178182549Y-70030032D01*
X178182549Y-70125270D01*
X177706358Y-70220508D01*
X179039692Y-69887175D02*
X179039692Y-70696699D01*
X178992073Y-70791937D01*
X178944454Y-70839556D01*
X178849216Y-70887175D01*
X178706358Y-70887175D01*
X178611120Y-70839556D01*
X179039692Y-70506222D02*
X178944454Y-70553841D01*
X178753978Y-70553841D01*
X178658739Y-70506222D01*
X178611120Y-70458603D01*
X178563501Y-70363365D01*
X178563501Y-70077651D01*
X178611120Y-69982413D01*
X178658739Y-69934794D01*
X178753978Y-69887175D01*
X178944454Y-69887175D01*
X179039692Y-69934794D01*
X179944454Y-69887175D02*
X179944454Y-70553841D01*
X179515882Y-69887175D02*
X179515882Y-70410984D01*
X179563501Y-70506222D01*
X179658739Y-70553841D01*
X179801597Y-70553841D01*
X179896835Y-70506222D01*
X179944454Y-70458603D01*
X180563501Y-70553841D02*
X180468263Y-70506222D01*
X180420644Y-70410984D01*
X180420644Y-69553841D01*
X181373025Y-70553841D02*
X181373025Y-70030032D01*
X181325406Y-69934794D01*
X181230168Y-69887175D01*
X181039692Y-69887175D01*
X180944454Y-69934794D01*
X181373025Y-70506222D02*
X181277787Y-70553841D01*
X181039692Y-70553841D01*
X180944454Y-70506222D01*
X180896835Y-70410984D01*
X180896835Y-70315746D01*
X180944454Y-70220508D01*
X181039692Y-70172889D01*
X181277787Y-70172889D01*
X181373025Y-70125270D01*
X181706358Y-69887175D02*
X182087311Y-69887175D01*
X181849216Y-69553841D02*
X181849216Y-70410984D01*
X181896835Y-70506222D01*
X181992073Y-70553841D01*
X182087311Y-70553841D01*
X182563501Y-70553841D02*
X182468263Y-70506222D01*
X182420644Y-70458603D01*
X182373025Y-70363365D01*
X182373025Y-70077651D01*
X182420644Y-69982413D01*
X182468263Y-69934794D01*
X182563501Y-69887175D01*
X182706358Y-69887175D01*
X182801597Y-69934794D01*
X182849216Y-69982413D01*
X182896835Y-70077651D01*
X182896835Y-70363365D01*
X182849216Y-70458603D01*
X182801597Y-70506222D01*
X182706358Y-70553841D01*
X182563501Y-70553841D01*
X183325406Y-70553841D02*
X183325406Y-69887175D01*
X183325406Y-70077651D02*
X183373025Y-69982413D01*
X183420644Y-69934794D01*
X183515882Y-69887175D01*
X183611120Y-69887175D01*
%TO.C,C4*%
X175617142Y-88741849D02*
X175664761Y-88789468D01*
X175712380Y-88932325D01*
X175712380Y-89027563D01*
X175664761Y-89170421D01*
X175569523Y-89265659D01*
X175474285Y-89313278D01*
X175283809Y-89360897D01*
X175140952Y-89360897D01*
X174950476Y-89313278D01*
X174855238Y-89265659D01*
X174760000Y-89170421D01*
X174712380Y-89027563D01*
X174712380Y-88932325D01*
X174760000Y-88789468D01*
X174807619Y-88741849D01*
X175045714Y-87884706D02*
X175712380Y-87884706D01*
X174664761Y-88122802D02*
X175379047Y-88360897D01*
X175379047Y-87741849D01*
%TO.C,C3*%
X175617142Y-78581849D02*
X175664761Y-78629468D01*
X175712380Y-78772325D01*
X175712380Y-78867563D01*
X175664761Y-79010421D01*
X175569523Y-79105659D01*
X175474285Y-79153278D01*
X175283809Y-79200897D01*
X175140952Y-79200897D01*
X174950476Y-79153278D01*
X174855238Y-79105659D01*
X174760000Y-79010421D01*
X174712380Y-78867563D01*
X174712380Y-78772325D01*
X174760000Y-78629468D01*
X174807619Y-78581849D01*
X174712380Y-78248516D02*
X174712380Y-77629468D01*
X175093333Y-77962802D01*
X175093333Y-77819944D01*
X175140952Y-77724706D01*
X175188571Y-77677087D01*
X175283809Y-77629468D01*
X175521904Y-77629468D01*
X175617142Y-77677087D01*
X175664761Y-77724706D01*
X175712380Y-77819944D01*
X175712380Y-78105659D01*
X175664761Y-78200897D01*
X175617142Y-78248516D01*
%TO.C,C2*%
X170537142Y-91281849D02*
X170584761Y-91329468D01*
X170632380Y-91472325D01*
X170632380Y-91567563D01*
X170584761Y-91710421D01*
X170489523Y-91805659D01*
X170394285Y-91853278D01*
X170203809Y-91900897D01*
X170060952Y-91900897D01*
X169870476Y-91853278D01*
X169775238Y-91805659D01*
X169680000Y-91710421D01*
X169632380Y-91567563D01*
X169632380Y-91472325D01*
X169680000Y-91329468D01*
X169727619Y-91281849D01*
X169727619Y-90900897D02*
X169680000Y-90853278D01*
X169632380Y-90758040D01*
X169632380Y-90519944D01*
X169680000Y-90424706D01*
X169727619Y-90377087D01*
X169822857Y-90329468D01*
X169918095Y-90329468D01*
X170060952Y-90377087D01*
X170632380Y-90948516D01*
X170632380Y-90329468D01*
%TO.C,C1*%
X170537142Y-81121849D02*
X170584761Y-81169468D01*
X170632380Y-81312325D01*
X170632380Y-81407563D01*
X170584761Y-81550421D01*
X170489523Y-81645659D01*
X170394285Y-81693278D01*
X170203809Y-81740897D01*
X170060952Y-81740897D01*
X169870476Y-81693278D01*
X169775238Y-81645659D01*
X169680000Y-81550421D01*
X169632380Y-81407563D01*
X169632380Y-81312325D01*
X169680000Y-81169468D01*
X169727619Y-81121849D01*
X170632380Y-80169468D02*
X170632380Y-80740897D01*
X170632380Y-80455183D02*
X169632380Y-80455183D01*
X169775238Y-80550421D01*
X169870476Y-80645659D01*
X169918095Y-80740897D01*
%TO.C,D4*%
X182746358Y-87098095D02*
X181746358Y-87098095D01*
X181746358Y-86860000D01*
X181793978Y-86717142D01*
X181889216Y-86621904D01*
X181984454Y-86574285D01*
X182174930Y-86526666D01*
X182317787Y-86526666D01*
X182508263Y-86574285D01*
X182603501Y-86621904D01*
X182698739Y-86717142D01*
X182746358Y-86860000D01*
X182746358Y-87098095D01*
X182079692Y-85669523D02*
X182746358Y-85669523D01*
X181698739Y-85907619D02*
X182413025Y-86145714D01*
X182413025Y-85526666D01*
%TO.C,D2*%
X182786358Y-76938095D02*
X181786358Y-76938095D01*
X181786358Y-76700000D01*
X181833978Y-76557142D01*
X181929216Y-76461904D01*
X182024454Y-76414285D01*
X182214930Y-76366666D01*
X182357787Y-76366666D01*
X182548263Y-76414285D01*
X182643501Y-76461904D01*
X182738739Y-76557142D01*
X182786358Y-76700000D01*
X182786358Y-76938095D01*
X181881597Y-75985714D02*
X181833978Y-75938095D01*
X181786358Y-75842857D01*
X181786358Y-75604761D01*
X181833978Y-75509523D01*
X181881597Y-75461904D01*
X181976835Y-75414285D01*
X182072073Y-75414285D01*
X182214930Y-75461904D01*
X182786358Y-76033333D01*
X182786358Y-75414285D01*
%TO.C,D1*%
X180246358Y-76938095D02*
X179246358Y-76938095D01*
X179246358Y-76700000D01*
X179293978Y-76557142D01*
X179389216Y-76461904D01*
X179484454Y-76414285D01*
X179674930Y-76366666D01*
X179817787Y-76366666D01*
X180008263Y-76414285D01*
X180103501Y-76461904D01*
X180198739Y-76557142D01*
X180246358Y-76700000D01*
X180246358Y-76938095D01*
X180246358Y-75414285D02*
X180246358Y-75985714D01*
X180246358Y-75700000D02*
X179246358Y-75700000D01*
X179389216Y-75795238D01*
X179484454Y-75890476D01*
X179532073Y-75985714D01*
%TO.C,D3*%
X180206358Y-87098095D02*
X179206358Y-87098095D01*
X179206358Y-86860000D01*
X179253978Y-86717142D01*
X179349216Y-86621904D01*
X179444454Y-86574285D01*
X179634930Y-86526666D01*
X179777787Y-86526666D01*
X179968263Y-86574285D01*
X180063501Y-86621904D01*
X180158739Y-86717142D01*
X180206358Y-86860000D01*
X180206358Y-87098095D01*
X179206358Y-86193333D02*
X179206358Y-85574285D01*
X179587311Y-85907619D01*
X179587311Y-85764761D01*
X179634930Y-85669523D01*
X179682549Y-85621904D01*
X179777787Y-85574285D01*
X180015882Y-85574285D01*
X180111120Y-85621904D01*
X180158739Y-85669523D01*
X180206358Y-85764761D01*
X180206358Y-86050476D01*
X180158739Y-86145714D01*
X180111120Y-86193333D01*
D11*
%TO.C,C4*%
X177880000Y-84785183D02*
G75*
G03*
X177880000Y-84785183I-2620000J0D01*
G01*
X173785000Y-87589958D02*
X173785000Y-87089958D01*
X173535000Y-87339958D02*
X174035000Y-87339958D01*
%TO.C,C3*%
X177880000Y-74625183D02*
G75*
G03*
X177880000Y-74625183I-2620000J0D01*
G01*
X173785000Y-77429958D02*
X173785000Y-76929958D01*
X173535000Y-77179958D02*
X174035000Y-77179958D01*
%TO.C,C2*%
X172800000Y-87325183D02*
G75*
G03*
X172800000Y-87325183I-2620000J0D01*
G01*
X168705000Y-90129958D02*
X168705000Y-89629958D01*
X168455000Y-89879958D02*
X168955000Y-89879958D01*
%TO.C,C1*%
X172800000Y-77165183D02*
G75*
G03*
X172800000Y-77165183I-2620000J0D01*
G01*
X168705000Y-79969958D02*
X168705000Y-79469958D01*
X168455000Y-79719958D02*
X168955000Y-79719958D01*
%TO.C,U2*%
X162228978Y-91155183D02*
X162228978Y-80915183D01*
X166869978Y-91155183D02*
X166869978Y-80915183D01*
X162228978Y-91155183D02*
X166869978Y-91155183D01*
X162228978Y-80915183D02*
X166869978Y-80915183D01*
X163738978Y-91155183D02*
X163738978Y-80915183D01*
X162228978Y-87885183D02*
X163738978Y-87885183D01*
X162228978Y-84184183D02*
X163738978Y-84184183D01*
%TO.C,U1*%
X162228978Y-80050000D02*
X162228978Y-69810000D01*
X166869978Y-80050000D02*
X166869978Y-69810000D01*
X162228978Y-80050000D02*
X166869978Y-80050000D01*
X162228978Y-69810000D02*
X166869978Y-69810000D01*
X163738978Y-80050000D02*
X163738978Y-69810000D01*
X162228978Y-76780000D02*
X163738978Y-76780000D01*
X162228978Y-73079000D02*
X163738978Y-73079000D01*
%TO.C,J1*%
X188623978Y-89905183D02*
X191283978Y-89905183D01*
X188623978Y-77145183D02*
X188623978Y-89905183D01*
X191283978Y-77145183D02*
X191283978Y-89905183D01*
X188623978Y-77145183D02*
X191283978Y-77145183D01*
X188623978Y-75875183D02*
X188623978Y-74545183D01*
X188623978Y-74545183D02*
X189953978Y-74545183D01*
%TO.C,D4*%
X182333978Y-89130000D02*
X182333978Y-88480000D01*
X181213978Y-88480000D02*
X183453978Y-88480000D01*
X183453978Y-88480000D02*
X183453978Y-84240000D01*
X183453978Y-84840000D02*
X181213978Y-84840000D01*
X183453978Y-84960000D02*
X181213978Y-84960000D01*
X182333978Y-83590000D02*
X182333978Y-84240000D01*
X183453978Y-85080000D02*
X181213978Y-85080000D01*
X183453978Y-84240000D02*
X181213978Y-84240000D01*
X181213978Y-84240000D02*
X181213978Y-88480000D01*
%TO.C,D2*%
X183453978Y-74080000D02*
X181213978Y-74080000D01*
X181213978Y-78320000D02*
X183453978Y-78320000D01*
X182333978Y-73430000D02*
X182333978Y-74080000D01*
X181213978Y-74080000D02*
X181213978Y-78320000D01*
X182333978Y-78970000D02*
X182333978Y-78320000D01*
X183453978Y-74680000D02*
X181213978Y-74680000D01*
X183453978Y-74920000D02*
X181213978Y-74920000D01*
X183453978Y-78320000D02*
X183453978Y-74080000D01*
X183453978Y-74800000D02*
X181213978Y-74800000D01*
%TO.C,D1*%
X180913978Y-74800000D02*
X178673978Y-74800000D01*
X180913978Y-74920000D02*
X178673978Y-74920000D01*
X180913978Y-74080000D02*
X178673978Y-74080000D01*
X178673978Y-74080000D02*
X178673978Y-78320000D01*
X180913978Y-78320000D02*
X180913978Y-74080000D01*
X179793978Y-73430000D02*
X179793978Y-74080000D01*
X180913978Y-74680000D02*
X178673978Y-74680000D01*
X179793978Y-78970000D02*
X179793978Y-78320000D01*
X178673978Y-78320000D02*
X180913978Y-78320000D01*
%TO.C,D3*%
X180913978Y-88480000D02*
X180913978Y-84240000D01*
X179793978Y-83590000D02*
X179793978Y-84240000D01*
X178673978Y-84240000D02*
X178673978Y-88480000D01*
X180913978Y-84960000D02*
X178673978Y-84960000D01*
X180913978Y-85080000D02*
X178673978Y-85080000D01*
X180913978Y-84840000D02*
X178673978Y-84840000D01*
X179793978Y-89130000D02*
X179793978Y-88480000D01*
X180913978Y-84240000D02*
X178673978Y-84240000D01*
X178673978Y-88480000D02*
X180913978Y-88480000D01*
%TD*%
M02*
