M48
; DRILL file {KiCad 6.0.0} date Thu 20 Jan 2022 06:38:00 PM MST
; FORMAT={-:-/ absolute / inch / decimal}
; #@! TF.CreationDate,2022-01-20T18:38:00-07:00
; #@! TF.GenerationSoftware,Kicad,Pcbnew,6.0.0
; #@! TF.FileFunction,Plated,1,2,PTH
FMAT,2
INCH
; #@! TA.AperFunction,Plated,PTH,ComponentDrill
T1C0.0315
; #@! TA.AperFunction,Plated,PTH,ComponentDrill
T2C0.0394
; #@! TA.AperFunction,Plated,PTH,ComponentDrill
T3C0.0433
%
G90
G05
T1
X6.7Y-2.9888
X6.7Y-3.0872
X6.7Y-3.3888
X6.7Y-3.4872
X6.9Y-2.8888
X6.9Y-2.9872
X6.9Y-3.2888
X6.9Y-3.3872
X7.0785Y-2.85
X7.0785Y-3.15
X7.0785Y-3.25
X7.0785Y-3.55
X7.1785Y-2.85
X7.1785Y-3.15
X7.1785Y-3.25
X7.1785Y-3.55
T2
X7.4785Y-2.9872
X7.4785Y-3.0872
X7.4785Y-3.1872
X7.4785Y-3.2872
X7.4785Y-3.3872
X7.4785Y-3.4872
T3
X6.5157Y-2.85
X6.5157Y-2.95
X6.5157Y-3.05
X6.5157Y-3.2872
X6.5157Y-3.3872
X6.5157Y-3.4872
T0
M30
