%TF.GenerationSoftware,KiCad,Pcbnew,6.0.0*%
%TF.CreationDate,2022-01-20T18:23:07-07:00*%
%TF.ProjectId,cr3-power-regulator,6372332d-706f-4776-9572-2d726567756c,rev?*%
%TF.SameCoordinates,Original*%
%TF.FileFunction,Copper,L2,Bot*%
%TF.FilePolarity,Positive*%
%FSLAX46Y46*%
G04 Gerber Fmt 4.6, Leading zero omitted, Abs format (unit mm)*
G04 Created by KiCad (PCBNEW 6.0.0) date 2022-01-20 18:23:07*
%MOMM*%
%LPD*%
G01*
G04 APERTURE LIST*
%TA.AperFunction,ComponentPad*%
%ADD10R,1.600000X1.600000*%
%TD*%
%TA.AperFunction,ComponentPad*%
%ADD11C,1.600000*%
%TD*%
%TA.AperFunction,ComponentPad*%
%ADD12R,2.000000X1.905000*%
%TD*%
%TA.AperFunction,ComponentPad*%
%ADD13O,2.000000X1.905000*%
%TD*%
%TA.AperFunction,ComponentPad*%
%ADD14R,1.700000X1.700000*%
%TD*%
%TA.AperFunction,ComponentPad*%
%ADD15O,1.700000X1.700000*%
%TD*%
%TA.AperFunction,ComponentPad*%
%ADD16O,1.600000X1.600000*%
%TD*%
G04 APERTURE END LIST*
D10*
%TO.P,C4,1*%
%TO.N,GND*%
X175260000Y-83495183D03*
D11*
%TO.P,C4,2*%
%TO.N,OUT_N*%
X175260000Y-85995183D03*
%TD*%
D10*
%TO.P,C3,1*%
%TO.N,OUT_P*%
X175260000Y-75875183D03*
D11*
%TO.P,C3,2*%
%TO.N,GND*%
X175260000Y-73375183D03*
%TD*%
D10*
%TO.P,C2,1*%
%TO.N,GND*%
X170180000Y-86035183D03*
D11*
%TO.P,C2,2*%
%TO.N,IN_N*%
X170180000Y-88535183D03*
%TD*%
D10*
%TO.P,C1,1*%
%TO.N,IN_P*%
X170180000Y-78415183D03*
D11*
%TO.P,C1,2*%
%TO.N,GND*%
X170180000Y-75915183D03*
%TD*%
D12*
%TO.P,U2,1,GND*%
%TO.N,GND*%
X165498978Y-88575183D03*
D13*
%TO.P,U2,2,VI*%
%TO.N,IN_N*%
X165498978Y-86035183D03*
%TO.P,U2,3,VO*%
%TO.N,OUT_N*%
X165498978Y-83495183D03*
%TD*%
D12*
%TO.P,U1,1,IN*%
%TO.N,IN_P*%
X165498978Y-77470000D03*
D13*
%TO.P,U1,2,GND*%
%TO.N,GND*%
X165498978Y-74930000D03*
%TO.P,U1,3,OUT*%
%TO.N,OUT_P*%
X165498978Y-72390000D03*
%TD*%
D14*
%TO.P,J1,1,Pin_1*%
%TO.N,IN_P*%
X189953978Y-75875183D03*
D15*
%TO.P,J1,2,Pin_2*%
%TO.N,GND*%
X189953978Y-78415183D03*
%TO.P,J1,3,Pin_3*%
%TO.N,OUT_P*%
X189953978Y-80955183D03*
%TO.P,J1,4,Pin_4*%
%TO.N,OUT_N*%
X189953978Y-83495183D03*
%TO.P,J1,5,Pin_5*%
%TO.N,GND*%
X189953978Y-86035183D03*
%TO.P,J1,6,Pin_6*%
%TO.N,IN_N*%
X189953978Y-88575183D03*
%TD*%
D10*
%TO.P,D4,1,K*%
%TO.N,OUT_N*%
X182333978Y-82550000D03*
D16*
%TO.P,D4,2,A*%
%TO.N,IN_N*%
X182333978Y-90170000D03*
%TD*%
D10*
%TO.P,D2,1,K*%
%TO.N,OUT_P*%
X182333978Y-72390000D03*
D16*
%TO.P,D2,2,A*%
%TO.N,GND*%
X182333978Y-80010000D03*
%TD*%
%TO.P,D1,2,A*%
%TO.N,OUT_P*%
X179793978Y-80010000D03*
D10*
%TO.P,D1,1,K*%
%TO.N,IN_P*%
X179793978Y-72390000D03*
%TD*%
%TO.P,D3,1,K*%
%TO.N,GND*%
X179793978Y-82550000D03*
D16*
%TO.P,D3,2,A*%
%TO.N,OUT_N*%
X179793978Y-90170000D03*
%TD*%
%TA.AperFunction,Conductor*%
%TO.N,GND*%
G36*
X192474121Y-69108002D02*
G01*
X192520614Y-69161658D01*
X192532000Y-69214000D01*
X192532000Y-92076000D01*
X192511998Y-92144121D01*
X192458342Y-92190614D01*
X192406000Y-92202000D01*
X161924000Y-92202000D01*
X161855879Y-92181998D01*
X161809386Y-92128342D01*
X161798000Y-92076000D01*
X161798000Y-90170000D01*
X178480480Y-90170000D01*
X178500435Y-90398087D01*
X178559694Y-90619243D01*
X178562017Y-90624224D01*
X178562017Y-90624225D01*
X178654129Y-90821762D01*
X178654132Y-90821767D01*
X178656455Y-90826749D01*
X178787780Y-91014300D01*
X178949678Y-91176198D01*
X178954186Y-91179355D01*
X178954189Y-91179357D01*
X179032367Y-91234098D01*
X179137229Y-91307523D01*
X179142211Y-91309846D01*
X179142216Y-91309849D01*
X179339753Y-91401961D01*
X179344735Y-91404284D01*
X179350043Y-91405706D01*
X179350045Y-91405707D01*
X179560576Y-91462119D01*
X179560578Y-91462119D01*
X179565891Y-91463543D01*
X179793978Y-91483498D01*
X180022065Y-91463543D01*
X180027378Y-91462119D01*
X180027380Y-91462119D01*
X180237911Y-91405707D01*
X180237913Y-91405706D01*
X180243221Y-91404284D01*
X180248203Y-91401961D01*
X180445740Y-91309849D01*
X180445745Y-91309846D01*
X180450727Y-91307523D01*
X180555589Y-91234098D01*
X180633767Y-91179357D01*
X180633770Y-91179355D01*
X180638278Y-91176198D01*
X180800176Y-91014300D01*
X180931501Y-90826749D01*
X180933824Y-90821767D01*
X180933827Y-90821762D01*
X180949783Y-90787543D01*
X180996700Y-90734258D01*
X181064977Y-90714797D01*
X181132937Y-90735339D01*
X181178173Y-90787543D01*
X181194129Y-90821762D01*
X181194132Y-90821767D01*
X181196455Y-90826749D01*
X181327780Y-91014300D01*
X181489678Y-91176198D01*
X181494186Y-91179355D01*
X181494189Y-91179357D01*
X181572367Y-91234098D01*
X181677229Y-91307523D01*
X181682211Y-91309846D01*
X181682216Y-91309849D01*
X181879753Y-91401961D01*
X181884735Y-91404284D01*
X181890043Y-91405706D01*
X181890045Y-91405707D01*
X182100576Y-91462119D01*
X182100578Y-91462119D01*
X182105891Y-91463543D01*
X182333978Y-91483498D01*
X182562065Y-91463543D01*
X182567378Y-91462119D01*
X182567380Y-91462119D01*
X182777911Y-91405707D01*
X182777913Y-91405706D01*
X182783221Y-91404284D01*
X182788203Y-91401961D01*
X182985740Y-91309849D01*
X182985745Y-91309846D01*
X182990727Y-91307523D01*
X183095589Y-91234098D01*
X183173767Y-91179357D01*
X183173770Y-91179355D01*
X183178278Y-91176198D01*
X183340176Y-91014300D01*
X183471501Y-90826749D01*
X183473824Y-90821767D01*
X183473827Y-90821762D01*
X183565939Y-90624225D01*
X183565939Y-90624224D01*
X183568262Y-90619243D01*
X183627521Y-90398087D01*
X183647476Y-90170000D01*
X183627521Y-89941913D01*
X183603978Y-89854050D01*
X183569685Y-89726067D01*
X183569684Y-89726065D01*
X183568262Y-89720757D01*
X183545856Y-89672706D01*
X183473827Y-89518238D01*
X183473824Y-89518233D01*
X183471501Y-89513251D01*
X183378387Y-89380271D01*
X183343335Y-89330211D01*
X183343333Y-89330208D01*
X183340176Y-89325700D01*
X183178278Y-89163802D01*
X183173770Y-89160645D01*
X183173767Y-89160643D01*
X183060933Y-89081636D01*
X182990727Y-89032477D01*
X182985745Y-89030154D01*
X182985740Y-89030151D01*
X182788203Y-88938039D01*
X182788202Y-88938039D01*
X182783221Y-88935716D01*
X182777913Y-88934294D01*
X182777911Y-88934293D01*
X182567380Y-88877881D01*
X182567378Y-88877881D01*
X182562065Y-88876457D01*
X182333978Y-88856502D01*
X182105891Y-88876457D01*
X182100578Y-88877881D01*
X182100576Y-88877881D01*
X181890045Y-88934293D01*
X181890043Y-88934294D01*
X181884735Y-88935716D01*
X181879754Y-88938039D01*
X181879753Y-88938039D01*
X181682216Y-89030151D01*
X181682211Y-89030154D01*
X181677229Y-89032477D01*
X181607023Y-89081636D01*
X181494189Y-89160643D01*
X181494186Y-89160645D01*
X181489678Y-89163802D01*
X181327780Y-89325700D01*
X181324623Y-89330208D01*
X181324621Y-89330211D01*
X181289569Y-89380271D01*
X181196455Y-89513251D01*
X181194132Y-89518233D01*
X181194129Y-89518238D01*
X181178173Y-89552457D01*
X181131256Y-89605742D01*
X181062979Y-89625203D01*
X180995019Y-89604661D01*
X180949783Y-89552457D01*
X180933827Y-89518238D01*
X180933824Y-89518233D01*
X180931501Y-89513251D01*
X180838387Y-89380271D01*
X180803335Y-89330211D01*
X180803333Y-89330208D01*
X180800176Y-89325700D01*
X180638278Y-89163802D01*
X180633770Y-89160645D01*
X180633767Y-89160643D01*
X180520933Y-89081636D01*
X180450727Y-89032477D01*
X180445745Y-89030154D01*
X180445740Y-89030151D01*
X180248203Y-88938039D01*
X180248202Y-88938039D01*
X180243221Y-88935716D01*
X180237913Y-88934294D01*
X180237911Y-88934293D01*
X180027380Y-88877881D01*
X180027378Y-88877881D01*
X180022065Y-88876457D01*
X179793978Y-88856502D01*
X179565891Y-88876457D01*
X179560578Y-88877881D01*
X179560576Y-88877881D01*
X179350045Y-88934293D01*
X179350043Y-88934294D01*
X179344735Y-88935716D01*
X179339754Y-88938039D01*
X179339753Y-88938039D01*
X179142216Y-89030151D01*
X179142211Y-89030154D01*
X179137229Y-89032477D01*
X179067023Y-89081636D01*
X178954189Y-89160643D01*
X178954186Y-89160645D01*
X178949678Y-89163802D01*
X178787780Y-89325700D01*
X178784623Y-89330208D01*
X178784621Y-89330211D01*
X178749569Y-89380271D01*
X178656455Y-89513251D01*
X178654132Y-89518233D01*
X178654129Y-89518238D01*
X178582100Y-89672706D01*
X178559694Y-89720757D01*
X178558272Y-89726065D01*
X178558271Y-89726067D01*
X178523978Y-89854050D01*
X178500435Y-89941913D01*
X178480480Y-90170000D01*
X161798000Y-90170000D01*
X161798000Y-89572352D01*
X163990979Y-89572352D01*
X163991349Y-89579173D01*
X163996873Y-89630035D01*
X164000499Y-89645287D01*
X164045654Y-89765737D01*
X164054192Y-89781332D01*
X164130693Y-89883407D01*
X164143254Y-89895968D01*
X164245329Y-89972469D01*
X164260924Y-89981007D01*
X164381372Y-90026161D01*
X164396627Y-90029788D01*
X164447492Y-90035314D01*
X164454306Y-90035683D01*
X165226863Y-90035683D01*
X165242102Y-90031208D01*
X165243307Y-90029818D01*
X165244978Y-90022135D01*
X165244978Y-90017567D01*
X165752978Y-90017567D01*
X165757453Y-90032806D01*
X165758843Y-90034011D01*
X165766526Y-90035682D01*
X166543647Y-90035682D01*
X166550468Y-90035312D01*
X166601330Y-90029788D01*
X166616582Y-90026162D01*
X166737032Y-89981007D01*
X166752627Y-89972469D01*
X166854702Y-89895968D01*
X166867263Y-89883407D01*
X166943764Y-89781332D01*
X166952302Y-89765737D01*
X166997456Y-89645289D01*
X167001083Y-89630034D01*
X167006609Y-89579169D01*
X167006978Y-89572355D01*
X167006978Y-88847298D01*
X167002503Y-88832059D01*
X167001113Y-88830854D01*
X166993430Y-88829183D01*
X165771093Y-88829183D01*
X165755854Y-88833658D01*
X165754649Y-88835048D01*
X165752978Y-88842731D01*
X165752978Y-90017567D01*
X165244978Y-90017567D01*
X165244978Y-88847298D01*
X165240503Y-88832059D01*
X165239113Y-88830854D01*
X165231430Y-88829183D01*
X164009094Y-88829183D01*
X163993855Y-88833658D01*
X163992650Y-88835048D01*
X163990979Y-88842731D01*
X163990979Y-89572352D01*
X161798000Y-89572352D01*
X161798000Y-88535183D01*
X168866502Y-88535183D01*
X168886457Y-88763270D01*
X168887881Y-88768583D01*
X168887881Y-88768585D01*
X168933287Y-88938039D01*
X168945716Y-88984426D01*
X168948039Y-88989407D01*
X168948039Y-88989408D01*
X169040151Y-89186945D01*
X169040154Y-89186950D01*
X169042477Y-89191932D01*
X169105165Y-89281460D01*
X169136143Y-89325700D01*
X169173802Y-89379483D01*
X169335700Y-89541381D01*
X169340208Y-89544538D01*
X169340211Y-89544540D01*
X169351518Y-89552457D01*
X169523251Y-89672706D01*
X169528233Y-89675029D01*
X169528238Y-89675032D01*
X169685484Y-89748356D01*
X169730757Y-89769467D01*
X169736065Y-89770889D01*
X169736067Y-89770890D01*
X169946598Y-89827302D01*
X169946600Y-89827302D01*
X169951913Y-89828726D01*
X170180000Y-89848681D01*
X170408087Y-89828726D01*
X170413400Y-89827302D01*
X170413402Y-89827302D01*
X170623933Y-89770890D01*
X170623935Y-89770889D01*
X170629243Y-89769467D01*
X170674516Y-89748356D01*
X170831762Y-89675032D01*
X170831767Y-89675029D01*
X170836749Y-89672706D01*
X171008482Y-89552457D01*
X171019789Y-89544540D01*
X171019792Y-89544538D01*
X171024300Y-89541381D01*
X171186198Y-89379483D01*
X171223858Y-89325700D01*
X171254835Y-89281460D01*
X171317523Y-89191932D01*
X171319846Y-89186950D01*
X171319849Y-89186945D01*
X171411961Y-88989408D01*
X171411961Y-88989407D01*
X171414284Y-88984426D01*
X171426714Y-88938039D01*
X171472119Y-88768585D01*
X171472119Y-88768583D01*
X171473543Y-88763270D01*
X171492912Y-88541878D01*
X188591229Y-88541878D01*
X188591526Y-88547031D01*
X188591526Y-88547034D01*
X188596989Y-88641773D01*
X188604088Y-88764898D01*
X188605225Y-88769944D01*
X188605226Y-88769950D01*
X188619584Y-88833658D01*
X188653200Y-88982822D01*
X188737244Y-89189799D01*
X188739943Y-89194203D01*
X188850718Y-89374972D01*
X188853965Y-89380271D01*
X189000228Y-89549121D01*
X189172104Y-89691815D01*
X189364978Y-89804521D01*
X189573670Y-89884213D01*
X189578738Y-89885244D01*
X189578741Y-89885245D01*
X189631447Y-89895968D01*
X189792575Y-89928750D01*
X189797750Y-89928940D01*
X189797752Y-89928940D01*
X190010651Y-89936747D01*
X190010655Y-89936747D01*
X190015815Y-89936936D01*
X190020935Y-89936280D01*
X190020937Y-89936280D01*
X190232266Y-89909208D01*
X190232267Y-89909208D01*
X190237394Y-89908551D01*
X190279335Y-89895968D01*
X190446407Y-89845844D01*
X190446412Y-89845842D01*
X190451362Y-89844357D01*
X190651972Y-89746079D01*
X190833838Y-89616356D01*
X190992074Y-89458672D01*
X191046177Y-89383380D01*
X191119413Y-89281460D01*
X191122431Y-89277260D01*
X191162375Y-89196440D01*
X191219114Y-89081636D01*
X191219115Y-89081634D01*
X191221408Y-89076994D01*
X191286348Y-88863252D01*
X191315507Y-88641773D01*
X191317134Y-88575183D01*
X191298830Y-88352544D01*
X191244409Y-88135885D01*
X191155332Y-87931023D01*
X191033992Y-87743460D01*
X190883648Y-87578234D01*
X190879597Y-87575035D01*
X190879593Y-87575031D01*
X190712392Y-87442983D01*
X190712388Y-87442981D01*
X190708337Y-87439781D01*
X190666547Y-87416712D01*
X190616576Y-87366280D01*
X190601804Y-87296837D01*
X190626920Y-87230431D01*
X190654272Y-87203824D01*
X190829306Y-87078975D01*
X190837178Y-87072322D01*
X190988030Y-86921995D01*
X190994708Y-86914148D01*
X191118981Y-86741203D01*
X191124291Y-86732366D01*
X191218648Y-86541450D01*
X191222447Y-86531855D01*
X191284355Y-86328093D01*
X191286533Y-86318020D01*
X191287964Y-86307145D01*
X191285753Y-86292961D01*
X191272595Y-86289183D01*
X188637203Y-86289183D01*
X188623672Y-86293156D01*
X188622235Y-86303149D01*
X188652543Y-86437629D01*
X188655623Y-86447458D01*
X188735748Y-86644786D01*
X188740391Y-86653977D01*
X188851672Y-86835571D01*
X188857755Y-86843882D01*
X188997191Y-87004850D01*
X189004558Y-87012066D01*
X189168412Y-87148099D01*
X189176859Y-87154014D01*
X189245947Y-87194386D01*
X189294671Y-87246025D01*
X189307742Y-87315808D01*
X189281011Y-87381579D01*
X189240562Y-87414935D01*
X189227585Y-87421690D01*
X189223452Y-87424793D01*
X189223449Y-87424795D01*
X189053078Y-87552713D01*
X189048943Y-87555818D01*
X188894607Y-87717321D01*
X188768721Y-87901863D01*
X188752981Y-87935773D01*
X188683276Y-88085940D01*
X188674666Y-88104488D01*
X188614967Y-88319753D01*
X188591229Y-88541878D01*
X171492912Y-88541878D01*
X171493498Y-88535183D01*
X171473543Y-88307096D01*
X171472119Y-88301781D01*
X171415707Y-88091250D01*
X171415706Y-88091248D01*
X171414284Y-88085940D01*
X171411961Y-88080958D01*
X171319849Y-87883421D01*
X171319846Y-87883416D01*
X171317523Y-87878434D01*
X171204710Y-87717321D01*
X171189357Y-87695394D01*
X171189355Y-87695391D01*
X171186198Y-87690883D01*
X171040078Y-87544763D01*
X171006052Y-87482451D01*
X171011117Y-87411636D01*
X171053664Y-87354800D01*
X171090606Y-87337500D01*
X171090207Y-87336435D01*
X171218054Y-87288507D01*
X171233649Y-87279969D01*
X171335724Y-87203468D01*
X171348285Y-87190907D01*
X171424786Y-87088832D01*
X171433324Y-87073237D01*
X171478478Y-86952789D01*
X171482105Y-86937534D01*
X171487631Y-86886669D01*
X171488000Y-86879855D01*
X171488000Y-86307298D01*
X171483525Y-86292059D01*
X171482135Y-86290854D01*
X171474452Y-86289183D01*
X168890116Y-86289183D01*
X168874877Y-86293658D01*
X168873672Y-86295048D01*
X168872001Y-86302731D01*
X168872001Y-86879852D01*
X168872371Y-86886673D01*
X168877895Y-86937535D01*
X168881521Y-86952787D01*
X168926676Y-87073237D01*
X168935214Y-87088832D01*
X169011715Y-87190907D01*
X169024276Y-87203468D01*
X169126351Y-87279969D01*
X169141946Y-87288507D01*
X169269793Y-87336435D01*
X169269096Y-87338295D01*
X169321628Y-87368314D01*
X169354442Y-87431273D01*
X169348008Y-87501977D01*
X169319922Y-87544763D01*
X169173802Y-87690883D01*
X169170645Y-87695391D01*
X169170643Y-87695394D01*
X169155290Y-87717321D01*
X169042477Y-87878434D01*
X169040154Y-87883416D01*
X169040151Y-87883421D01*
X168948039Y-88080958D01*
X168945716Y-88085940D01*
X168944294Y-88091248D01*
X168944293Y-88091250D01*
X168887881Y-88301781D01*
X168886457Y-88307096D01*
X168866502Y-88535183D01*
X161798000Y-88535183D01*
X161798000Y-86137446D01*
X163989042Y-86137446D01*
X164025382Y-86374927D01*
X164045876Y-86437629D01*
X164098412Y-86598366D01*
X164098415Y-86598372D01*
X164100020Y-86603284D01*
X164102407Y-86607870D01*
X164102409Y-86607874D01*
X164208562Y-86811790D01*
X164210953Y-86816383D01*
X164327706Y-86971883D01*
X164352611Y-87038365D01*
X164337619Y-87107761D01*
X164287489Y-87158035D01*
X164271175Y-87165516D01*
X164260924Y-87169359D01*
X164245329Y-87177897D01*
X164143254Y-87254398D01*
X164130693Y-87266959D01*
X164054192Y-87369034D01*
X164045654Y-87384629D01*
X164000500Y-87505077D01*
X163996873Y-87520332D01*
X163991347Y-87571197D01*
X163990978Y-87578011D01*
X163990978Y-88303068D01*
X163995453Y-88318307D01*
X163996843Y-88319512D01*
X164004526Y-88321183D01*
X166988862Y-88321183D01*
X167004101Y-88316708D01*
X167005306Y-88315318D01*
X167006977Y-88307635D01*
X167006977Y-87578014D01*
X167006607Y-87571193D01*
X167001083Y-87520331D01*
X166997457Y-87505079D01*
X166952302Y-87384629D01*
X166943764Y-87369034D01*
X166867263Y-87266959D01*
X166854702Y-87254398D01*
X166752627Y-87177897D01*
X166737033Y-87169359D01*
X166725465Y-87165023D01*
X166668699Y-87122382D01*
X166643998Y-87055821D01*
X166659204Y-86986472D01*
X166670810Y-86968948D01*
X166764345Y-86850513D01*
X166764348Y-86850508D01*
X166767546Y-86846459D01*
X166773557Y-86835571D01*
X166881155Y-86640657D01*
X166881157Y-86640653D01*
X166883652Y-86636133D01*
X166917182Y-86541450D01*
X166962122Y-86414543D01*
X166962123Y-86414539D01*
X166963848Y-86409668D01*
X166969161Y-86379842D01*
X167005073Y-86178235D01*
X167005074Y-86178229D01*
X167005979Y-86173146D01*
X167008153Y-85995183D01*
X173946502Y-85995183D01*
X173966457Y-86223270D01*
X173967881Y-86228583D01*
X173967881Y-86228585D01*
X174016403Y-86409668D01*
X174025716Y-86444426D01*
X174028039Y-86449407D01*
X174028039Y-86449408D01*
X174120151Y-86646945D01*
X174120154Y-86646950D01*
X174122477Y-86651932D01*
X174253802Y-86839483D01*
X174415700Y-87001381D01*
X174420208Y-87004538D01*
X174420211Y-87004540D01*
X174463708Y-87034997D01*
X174603251Y-87132706D01*
X174608233Y-87135029D01*
X174608238Y-87135032D01*
X174786331Y-87218077D01*
X174810757Y-87229467D01*
X174816065Y-87230889D01*
X174816067Y-87230890D01*
X175026598Y-87287302D01*
X175026600Y-87287302D01*
X175031913Y-87288726D01*
X175260000Y-87308681D01*
X175488087Y-87288726D01*
X175493400Y-87287302D01*
X175493402Y-87287302D01*
X175703933Y-87230890D01*
X175703935Y-87230889D01*
X175709243Y-87229467D01*
X175733669Y-87218077D01*
X175911762Y-87135032D01*
X175911767Y-87135029D01*
X175916749Y-87132706D01*
X176056292Y-87034997D01*
X176099789Y-87004540D01*
X176099792Y-87004538D01*
X176104300Y-87001381D01*
X176266198Y-86839483D01*
X176397523Y-86651932D01*
X176399846Y-86646950D01*
X176399849Y-86646945D01*
X176491961Y-86449408D01*
X176491961Y-86449407D01*
X176494284Y-86444426D01*
X176503598Y-86409668D01*
X176552119Y-86228585D01*
X176552119Y-86228583D01*
X176553543Y-86223270D01*
X176573498Y-85995183D01*
X176553543Y-85767096D01*
X176552119Y-85761781D01*
X176495707Y-85551250D01*
X176495706Y-85551248D01*
X176494284Y-85545940D01*
X176491961Y-85540958D01*
X176399849Y-85343421D01*
X176399846Y-85343416D01*
X176397523Y-85338434D01*
X176317330Y-85223907D01*
X176269357Y-85155394D01*
X176269355Y-85155391D01*
X176266198Y-85150883D01*
X176120078Y-85004763D01*
X176086052Y-84942451D01*
X176091117Y-84871636D01*
X176133664Y-84814800D01*
X176170606Y-84797500D01*
X176170207Y-84796435D01*
X176298054Y-84748507D01*
X176313649Y-84739969D01*
X176415724Y-84663468D01*
X176428285Y-84650907D01*
X176504786Y-84548832D01*
X176513324Y-84533237D01*
X176558478Y-84412789D01*
X176562105Y-84397534D01*
X176567631Y-84346669D01*
X176568000Y-84339855D01*
X176568000Y-83767298D01*
X176563525Y-83752059D01*
X176562135Y-83750854D01*
X176554452Y-83749183D01*
X173970116Y-83749183D01*
X173954877Y-83753658D01*
X173953672Y-83755048D01*
X173952001Y-83762731D01*
X173952001Y-84339852D01*
X173952371Y-84346673D01*
X173957895Y-84397535D01*
X173961521Y-84412787D01*
X174006676Y-84533237D01*
X174015214Y-84548832D01*
X174091715Y-84650907D01*
X174104276Y-84663468D01*
X174206351Y-84739969D01*
X174221946Y-84748507D01*
X174349793Y-84796435D01*
X174349096Y-84798295D01*
X174401628Y-84828314D01*
X174434442Y-84891273D01*
X174428008Y-84961977D01*
X174399922Y-85004763D01*
X174253802Y-85150883D01*
X174250645Y-85155391D01*
X174250643Y-85155394D01*
X174202670Y-85223907D01*
X174122477Y-85338434D01*
X174120154Y-85343416D01*
X174120151Y-85343421D01*
X174028039Y-85540958D01*
X174025716Y-85545940D01*
X174024294Y-85551248D01*
X174024293Y-85551250D01*
X173967881Y-85761781D01*
X173966457Y-85767096D01*
X173946502Y-85995183D01*
X167008153Y-85995183D01*
X167008914Y-85932920D01*
X166982923Y-85763068D01*
X168872000Y-85763068D01*
X168876475Y-85778307D01*
X168877865Y-85779512D01*
X168885548Y-85781183D01*
X169907885Y-85781183D01*
X169923124Y-85776708D01*
X169924329Y-85775318D01*
X169926000Y-85767635D01*
X169926000Y-85763068D01*
X170434000Y-85763068D01*
X170438475Y-85778307D01*
X170439865Y-85779512D01*
X170447548Y-85781183D01*
X171469884Y-85781183D01*
X171485123Y-85776708D01*
X171486328Y-85775318D01*
X171487999Y-85767635D01*
X171487999Y-85190514D01*
X171487629Y-85183693D01*
X171482105Y-85132831D01*
X171478479Y-85117579D01*
X171433324Y-84997129D01*
X171424786Y-84981534D01*
X171348285Y-84879459D01*
X171335724Y-84866898D01*
X171233649Y-84790397D01*
X171218054Y-84781859D01*
X171097606Y-84736705D01*
X171082351Y-84733078D01*
X171031486Y-84727552D01*
X171024672Y-84727183D01*
X170452115Y-84727183D01*
X170436876Y-84731658D01*
X170435671Y-84733048D01*
X170434000Y-84740731D01*
X170434000Y-85763068D01*
X169926000Y-85763068D01*
X169926000Y-84745299D01*
X169921525Y-84730060D01*
X169920135Y-84728855D01*
X169912452Y-84727184D01*
X169335331Y-84727184D01*
X169328510Y-84727554D01*
X169277648Y-84733078D01*
X169262396Y-84736704D01*
X169141946Y-84781859D01*
X169126351Y-84790397D01*
X169024276Y-84866898D01*
X169011715Y-84879459D01*
X168935214Y-84981534D01*
X168926676Y-84997129D01*
X168881522Y-85117577D01*
X168877895Y-85132832D01*
X168872369Y-85183697D01*
X168872000Y-85190511D01*
X168872000Y-85763068D01*
X166982923Y-85763068D01*
X166972574Y-85695439D01*
X166922082Y-85540958D01*
X166899544Y-85472000D01*
X166899541Y-85471994D01*
X166897936Y-85467082D01*
X166860932Y-85395997D01*
X166789394Y-85258576D01*
X166787003Y-85253983D01*
X166696040Y-85132832D01*
X166645860Y-85065998D01*
X166645858Y-85065995D01*
X166642755Y-85061863D01*
X166517798Y-84942451D01*
X166472803Y-84899453D01*
X166472802Y-84899452D01*
X166469066Y-84895882D01*
X166432075Y-84870648D01*
X166387074Y-84815739D01*
X166378903Y-84745215D01*
X166410157Y-84681467D01*
X166434638Y-84660772D01*
X166436613Y-84659494D01*
X166440955Y-84656685D01*
X166618648Y-84494997D01*
X166695619Y-84397535D01*
X166764345Y-84310513D01*
X166764348Y-84310508D01*
X166767546Y-84306459D01*
X166773391Y-84295872D01*
X166881155Y-84100657D01*
X166881157Y-84100653D01*
X166883652Y-84096133D01*
X166917116Y-84001636D01*
X166962122Y-83874543D01*
X166962123Y-83874539D01*
X166963848Y-83869668D01*
X166964756Y-83864572D01*
X167005073Y-83638235D01*
X167005074Y-83638229D01*
X167005979Y-83633146D01*
X167007152Y-83537157D01*
X167008851Y-83398088D01*
X167008851Y-83398086D01*
X167008893Y-83394669D01*
X178485979Y-83394669D01*
X178486349Y-83401490D01*
X178491873Y-83452352D01*
X178495499Y-83467604D01*
X178540654Y-83588054D01*
X178549192Y-83603649D01*
X178625693Y-83705724D01*
X178638254Y-83718285D01*
X178740329Y-83794786D01*
X178755924Y-83803324D01*
X178876372Y-83848478D01*
X178891627Y-83852105D01*
X178942492Y-83857631D01*
X178949306Y-83858000D01*
X179521863Y-83858000D01*
X179537102Y-83853525D01*
X179538307Y-83852135D01*
X179539978Y-83844452D01*
X179539978Y-82822115D01*
X179535503Y-82806876D01*
X179534113Y-82805671D01*
X179526430Y-82804000D01*
X178504094Y-82804000D01*
X178488855Y-82808475D01*
X178487650Y-82809865D01*
X178485979Y-82817548D01*
X178485979Y-83394669D01*
X167008893Y-83394669D01*
X167008914Y-83392920D01*
X166982923Y-83223068D01*
X173952000Y-83223068D01*
X173956475Y-83238307D01*
X173957865Y-83239512D01*
X173965548Y-83241183D01*
X174987885Y-83241183D01*
X175003124Y-83236708D01*
X175004329Y-83235318D01*
X175006000Y-83227635D01*
X175006000Y-83223068D01*
X175514000Y-83223068D01*
X175518475Y-83238307D01*
X175519865Y-83239512D01*
X175527548Y-83241183D01*
X176549884Y-83241183D01*
X176565123Y-83236708D01*
X176566328Y-83235318D01*
X176567999Y-83227635D01*
X176567999Y-82650514D01*
X176567629Y-82643693D01*
X176562105Y-82592831D01*
X176558479Y-82577579D01*
X176513324Y-82457129D01*
X176504786Y-82441534D01*
X176428285Y-82339459D01*
X176415724Y-82326898D01*
X176313649Y-82250397D01*
X176298054Y-82241859D01*
X176177606Y-82196705D01*
X176162351Y-82193078D01*
X176111486Y-82187552D01*
X176104672Y-82187183D01*
X175532115Y-82187183D01*
X175516876Y-82191658D01*
X175515671Y-82193048D01*
X175514000Y-82200731D01*
X175514000Y-83223068D01*
X175006000Y-83223068D01*
X175006000Y-82205299D01*
X175001525Y-82190060D01*
X175000135Y-82188855D01*
X174992452Y-82187184D01*
X174415331Y-82187184D01*
X174408510Y-82187554D01*
X174357648Y-82193078D01*
X174342396Y-82196704D01*
X174221946Y-82241859D01*
X174206351Y-82250397D01*
X174104276Y-82326898D01*
X174091715Y-82339459D01*
X174015214Y-82441534D01*
X174006676Y-82457129D01*
X173961522Y-82577577D01*
X173957895Y-82592832D01*
X173952369Y-82643697D01*
X173952000Y-82650511D01*
X173952000Y-83223068D01*
X166982923Y-83223068D01*
X166972574Y-83155439D01*
X166929773Y-83024488D01*
X166899544Y-82932000D01*
X166899541Y-82931994D01*
X166897936Y-82927082D01*
X166843294Y-82822115D01*
X166789394Y-82718576D01*
X166787003Y-82713983D01*
X166732652Y-82641594D01*
X166645860Y-82525998D01*
X166645858Y-82525995D01*
X166642755Y-82521863D01*
X166469066Y-82355882D01*
X166270600Y-82220497D01*
X166265917Y-82218323D01*
X166265913Y-82218321D01*
X166057383Y-82121525D01*
X166057379Y-82121524D01*
X166052688Y-82119346D01*
X165821180Y-82055143D01*
X165816043Y-82054594D01*
X165628385Y-82034539D01*
X165628377Y-82034539D01*
X165625050Y-82034183D01*
X165390576Y-82034183D01*
X165388003Y-82034395D01*
X165387992Y-82034395D01*
X165287032Y-82042696D01*
X165212041Y-82048861D01*
X164979034Y-82107389D01*
X164850207Y-82163404D01*
X164763452Y-82201126D01*
X164763449Y-82201128D01*
X164758715Y-82203186D01*
X164683537Y-82251821D01*
X164567486Y-82326898D01*
X164557001Y-82333681D01*
X164379308Y-82495369D01*
X164355119Y-82525998D01*
X164233611Y-82679853D01*
X164233608Y-82679858D01*
X164230410Y-82683907D01*
X164227917Y-82688423D01*
X164227915Y-82688426D01*
X164140557Y-82846675D01*
X164114304Y-82894233D01*
X164112580Y-82899102D01*
X164112578Y-82899106D01*
X164035834Y-83115823D01*
X164034108Y-83120698D01*
X164033201Y-83125791D01*
X164033200Y-83125794D01*
X164006141Y-83277705D01*
X163991977Y-83357220D01*
X163989042Y-83597446D01*
X164025382Y-83834927D01*
X164049138Y-83907608D01*
X164098412Y-84058366D01*
X164098415Y-84058372D01*
X164100020Y-84063284D01*
X164210953Y-84276383D01*
X164214063Y-84280525D01*
X164313370Y-84412789D01*
X164355201Y-84468503D01*
X164528890Y-84634484D01*
X164565881Y-84659718D01*
X164610882Y-84714627D01*
X164619053Y-84785151D01*
X164587799Y-84848899D01*
X164563318Y-84869594D01*
X164561685Y-84870651D01*
X164557001Y-84873681D01*
X164379308Y-85035369D01*
X164355119Y-85065998D01*
X164233611Y-85219853D01*
X164233608Y-85219858D01*
X164230410Y-85223907D01*
X164227917Y-85228423D01*
X164227915Y-85228426D01*
X164140421Y-85386922D01*
X164114304Y-85434233D01*
X164112580Y-85439102D01*
X164112578Y-85439106D01*
X164035834Y-85655823D01*
X164034108Y-85660698D01*
X164033201Y-85665791D01*
X164033200Y-85665794D01*
X164013159Y-85778307D01*
X163991977Y-85897220D01*
X163989042Y-86137446D01*
X161798000Y-86137446D01*
X161798000Y-80010000D01*
X178480480Y-80010000D01*
X178500435Y-80238087D01*
X178559694Y-80459243D01*
X178562017Y-80464224D01*
X178562017Y-80464225D01*
X178654129Y-80661762D01*
X178654132Y-80661767D01*
X178656455Y-80666749D01*
X178787780Y-80854300D01*
X178949678Y-81016198D01*
X178954189Y-81019357D01*
X178958402Y-81022892D01*
X178957590Y-81023860D01*
X178998068Y-81074494D01*
X179005382Y-81145113D01*
X178973354Y-81208476D01*
X178912155Y-81244464D01*
X178895077Y-81247520D01*
X178891626Y-81247895D01*
X178876374Y-81251521D01*
X178755924Y-81296676D01*
X178740329Y-81305214D01*
X178638254Y-81381715D01*
X178625693Y-81394276D01*
X178549192Y-81496351D01*
X178540654Y-81511946D01*
X178495500Y-81632394D01*
X178491873Y-81647649D01*
X178486347Y-81698514D01*
X178485978Y-81705328D01*
X178485978Y-82277885D01*
X178490453Y-82293124D01*
X178491843Y-82294329D01*
X178499526Y-82296000D01*
X179921978Y-82296000D01*
X179990099Y-82316002D01*
X180036592Y-82369658D01*
X180047978Y-82422000D01*
X180047978Y-83839884D01*
X180052453Y-83855123D01*
X180053843Y-83856328D01*
X180061526Y-83857999D01*
X180638647Y-83857999D01*
X180645468Y-83857629D01*
X180696330Y-83852105D01*
X180711582Y-83848479D01*
X180832032Y-83803324D01*
X180847627Y-83794786D01*
X180949702Y-83718285D01*
X180962262Y-83705725D01*
X180962843Y-83704950D01*
X180963612Y-83704375D01*
X180968613Y-83699374D01*
X180969335Y-83700096D01*
X181019704Y-83662438D01*
X181090523Y-83657416D01*
X181152815Y-83691478D01*
X181164488Y-83704950D01*
X181170717Y-83713261D01*
X181287273Y-83800615D01*
X181423662Y-83851745D01*
X181485844Y-83858500D01*
X183182112Y-83858500D01*
X183244294Y-83851745D01*
X183380683Y-83800615D01*
X183497239Y-83713261D01*
X183584593Y-83596705D01*
X183635137Y-83461878D01*
X188591229Y-83461878D01*
X188591526Y-83467031D01*
X188591526Y-83467034D01*
X188599403Y-83603649D01*
X188604088Y-83684898D01*
X188605225Y-83689944D01*
X188605226Y-83689950D01*
X188619584Y-83753658D01*
X188653200Y-83902822D01*
X188737244Y-84109799D01*
X188739943Y-84114203D01*
X188841865Y-84280525D01*
X188853965Y-84300271D01*
X189000228Y-84469121D01*
X189172104Y-84611815D01*
X189210898Y-84634484D01*
X189245933Y-84654957D01*
X189294657Y-84706595D01*
X189307728Y-84776378D01*
X189280997Y-84842150D01*
X189240540Y-84875510D01*
X189232435Y-84879729D01*
X189223716Y-84885219D01*
X189053411Y-85013088D01*
X189045704Y-85019931D01*
X188898568Y-85173900D01*
X188892082Y-85181910D01*
X188772076Y-85357832D01*
X188766978Y-85366806D01*
X188677316Y-85559966D01*
X188673753Y-85569653D01*
X188618367Y-85769366D01*
X188619890Y-85777790D01*
X188632270Y-85781183D01*
X191272322Y-85781183D01*
X191285853Y-85777210D01*
X191287158Y-85768130D01*
X191245192Y-85601058D01*
X191241872Y-85591307D01*
X191156950Y-85395997D01*
X191152083Y-85386922D01*
X191036404Y-85208109D01*
X191030114Y-85199940D01*
X190886784Y-85042423D01*
X190879251Y-85035398D01*
X190712117Y-84903405D01*
X190703534Y-84897703D01*
X190666580Y-84877303D01*
X190616609Y-84826870D01*
X190601837Y-84757428D01*
X190626953Y-84691022D01*
X190654305Y-84664415D01*
X190701273Y-84630913D01*
X190833838Y-84536356D01*
X190992074Y-84378672D01*
X191015068Y-84346673D01*
X191119413Y-84201460D01*
X191122431Y-84197260D01*
X191221408Y-83996994D01*
X191263750Y-83857631D01*
X191284843Y-83788206D01*
X191284843Y-83788204D01*
X191286348Y-83783252D01*
X191315507Y-83561773D01*
X191317134Y-83495183D01*
X191298830Y-83272544D01*
X191244409Y-83055885D01*
X191155332Y-82851023D01*
X191063997Y-82709841D01*
X191036800Y-82667800D01*
X191036798Y-82667797D01*
X191033992Y-82663460D01*
X190883648Y-82498234D01*
X190879597Y-82495035D01*
X190879593Y-82495031D01*
X190712392Y-82362983D01*
X190712388Y-82362981D01*
X190708337Y-82359781D01*
X190667031Y-82336979D01*
X190617062Y-82286547D01*
X190602290Y-82217104D01*
X190627406Y-82150699D01*
X190654758Y-82124092D01*
X190698581Y-82092833D01*
X190833838Y-81996356D01*
X190992074Y-81838672D01*
X191051572Y-81755872D01*
X191119413Y-81661460D01*
X191122431Y-81657260D01*
X191134721Y-81632394D01*
X191219114Y-81461636D01*
X191219115Y-81461634D01*
X191221408Y-81456994D01*
X191261967Y-81323498D01*
X191284843Y-81248206D01*
X191284843Y-81248204D01*
X191286348Y-81243252D01*
X191315507Y-81021773D01*
X191315643Y-81016198D01*
X191317052Y-80958548D01*
X191317052Y-80958544D01*
X191317134Y-80955183D01*
X191298830Y-80732544D01*
X191244409Y-80515885D01*
X191155332Y-80311023D01*
X191077260Y-80190342D01*
X191036800Y-80127800D01*
X191036798Y-80127797D01*
X191033992Y-80123460D01*
X190883648Y-79958234D01*
X190879597Y-79955035D01*
X190879593Y-79955031D01*
X190712392Y-79822983D01*
X190712388Y-79822981D01*
X190708337Y-79819781D01*
X190666547Y-79796712D01*
X190616576Y-79746280D01*
X190601804Y-79676837D01*
X190626920Y-79610431D01*
X190654272Y-79583824D01*
X190829306Y-79458975D01*
X190837178Y-79452322D01*
X190988030Y-79301995D01*
X190994708Y-79294148D01*
X191118981Y-79121203D01*
X191124291Y-79112366D01*
X191218648Y-78921450D01*
X191222447Y-78911855D01*
X191284355Y-78708093D01*
X191286533Y-78698020D01*
X191287964Y-78687145D01*
X191285753Y-78672961D01*
X191272595Y-78669183D01*
X188637203Y-78669183D01*
X188623672Y-78673156D01*
X188622235Y-78683149D01*
X188652543Y-78817629D01*
X188655623Y-78827458D01*
X188735748Y-79024786D01*
X188740391Y-79033977D01*
X188851672Y-79215571D01*
X188857755Y-79223882D01*
X188997191Y-79384850D01*
X189004558Y-79392066D01*
X189168412Y-79528099D01*
X189176859Y-79534014D01*
X189245947Y-79574386D01*
X189294671Y-79626025D01*
X189307742Y-79695808D01*
X189281011Y-79761579D01*
X189240562Y-79794935D01*
X189227585Y-79801690D01*
X189223452Y-79804793D01*
X189223449Y-79804795D01*
X189199225Y-79822983D01*
X189048943Y-79935818D01*
X188894607Y-80097321D01*
X188768721Y-80281863D01*
X188752981Y-80315773D01*
X188684072Y-80464225D01*
X188674666Y-80484488D01*
X188614967Y-80699753D01*
X188591229Y-80921878D01*
X188591526Y-80927031D01*
X188591526Y-80927034D01*
X188596924Y-81020656D01*
X188604088Y-81144898D01*
X188605225Y-81149944D01*
X188605226Y-81149950D01*
X188626253Y-81243252D01*
X188653200Y-81362822D01*
X188737244Y-81569799D01*
X188853965Y-81760271D01*
X189000228Y-81929121D01*
X189172104Y-82071815D01*
X189230827Y-82106130D01*
X189245423Y-82114659D01*
X189294147Y-82166297D01*
X189307218Y-82236080D01*
X189280487Y-82301852D01*
X189240033Y-82335210D01*
X189227585Y-82341690D01*
X189223452Y-82344793D01*
X189223449Y-82344795D01*
X189094605Y-82441534D01*
X189048943Y-82475818D01*
X188894607Y-82637321D01*
X188891693Y-82641593D01*
X188891692Y-82641594D01*
X188845137Y-82709841D01*
X188768721Y-82821863D01*
X188674666Y-83024488D01*
X188614967Y-83239753D01*
X188591229Y-83461878D01*
X183635137Y-83461878D01*
X183635723Y-83460316D01*
X183642478Y-83398134D01*
X183642478Y-81701866D01*
X183635723Y-81639684D01*
X183584593Y-81503295D01*
X183497239Y-81386739D01*
X183380683Y-81299385D01*
X183244294Y-81248255D01*
X183232749Y-81247001D01*
X183230068Y-81245887D01*
X183228756Y-81245575D01*
X183228806Y-81245363D01*
X183167188Y-81219762D01*
X183126760Y-81161401D01*
X183124301Y-81090447D01*
X183160594Y-81029428D01*
X183171203Y-81020853D01*
X183181853Y-81011916D01*
X183335894Y-80857875D01*
X183342950Y-80849467D01*
X183467909Y-80671007D01*
X183473392Y-80661511D01*
X183565468Y-80464053D01*
X183569214Y-80453761D01*
X183615372Y-80281497D01*
X183615036Y-80267401D01*
X183607094Y-80264000D01*
X182205978Y-80264000D01*
X182137857Y-80243998D01*
X182091364Y-80190342D01*
X182079978Y-80138000D01*
X182079978Y-79737885D01*
X182587978Y-79737885D01*
X182592453Y-79753124D01*
X182593843Y-79754329D01*
X182601526Y-79756000D01*
X183601945Y-79756000D01*
X183615476Y-79752027D01*
X183616705Y-79743478D01*
X183569214Y-79566239D01*
X183565468Y-79555947D01*
X183473392Y-79358489D01*
X183467909Y-79348993D01*
X183342950Y-79170533D01*
X183335894Y-79162125D01*
X183181853Y-79008084D01*
X183173445Y-79001028D01*
X182994985Y-78876069D01*
X182985489Y-78870586D01*
X182788031Y-78778510D01*
X182777739Y-78774764D01*
X182605475Y-78728606D01*
X182591379Y-78728942D01*
X182587978Y-78736884D01*
X182587978Y-79737885D01*
X182079978Y-79737885D01*
X182079978Y-78742033D01*
X182076005Y-78728502D01*
X182067456Y-78727273D01*
X181890217Y-78774764D01*
X181879925Y-78778510D01*
X181682467Y-78870586D01*
X181672971Y-78876069D01*
X181494511Y-79001028D01*
X181486103Y-79008084D01*
X181332062Y-79162125D01*
X181325006Y-79170533D01*
X181200047Y-79348993D01*
X181194564Y-79358489D01*
X181178449Y-79393049D01*
X181131532Y-79446334D01*
X181063255Y-79465795D01*
X180995295Y-79445253D01*
X180950059Y-79393049D01*
X180933827Y-79358238D01*
X180933824Y-79358233D01*
X180931501Y-79353251D01*
X180800176Y-79165700D01*
X180638278Y-79003802D01*
X180633770Y-79000645D01*
X180633767Y-79000643D01*
X180506964Y-78911855D01*
X180450727Y-78872477D01*
X180445745Y-78870154D01*
X180445740Y-78870151D01*
X180248203Y-78778039D01*
X180248202Y-78778039D01*
X180243221Y-78775716D01*
X180237913Y-78774294D01*
X180237911Y-78774293D01*
X180027380Y-78717881D01*
X180027378Y-78717881D01*
X180022065Y-78716457D01*
X179793978Y-78696502D01*
X179565891Y-78716457D01*
X179560578Y-78717881D01*
X179560576Y-78717881D01*
X179350045Y-78774293D01*
X179350043Y-78774294D01*
X179344735Y-78775716D01*
X179339754Y-78778039D01*
X179339753Y-78778039D01*
X179142216Y-78870151D01*
X179142211Y-78870154D01*
X179137229Y-78872477D01*
X179080992Y-78911855D01*
X178954189Y-79000643D01*
X178954186Y-79000645D01*
X178949678Y-79003802D01*
X178787780Y-79165700D01*
X178656455Y-79353251D01*
X178654132Y-79358233D01*
X178654129Y-79358238D01*
X178572164Y-79534014D01*
X178559694Y-79560757D01*
X178558272Y-79566065D01*
X178558271Y-79566067D01*
X178501859Y-79776598D01*
X178500435Y-79781913D01*
X178480480Y-80010000D01*
X161798000Y-80010000D01*
X161798000Y-79263317D01*
X168871500Y-79263317D01*
X168878255Y-79325499D01*
X168929385Y-79461888D01*
X169016739Y-79578444D01*
X169133295Y-79665798D01*
X169269684Y-79716928D01*
X169331866Y-79723683D01*
X171028134Y-79723683D01*
X171090316Y-79716928D01*
X171226705Y-79665798D01*
X171343261Y-79578444D01*
X171430615Y-79461888D01*
X171481745Y-79325499D01*
X171488500Y-79263317D01*
X171488500Y-77567049D01*
X171481745Y-77504867D01*
X171430615Y-77368478D01*
X171343261Y-77251922D01*
X171226705Y-77164568D01*
X171090316Y-77113438D01*
X171046748Y-77108705D01*
X171031514Y-77107050D01*
X171031511Y-77107050D01*
X171028134Y-77106683D01*
X171024815Y-77106683D01*
X170957890Y-77083030D01*
X170922196Y-77037027D01*
X170920266Y-77038042D01*
X170914558Y-77027183D01*
X170914368Y-77026938D01*
X170914347Y-77026780D01*
X170894356Y-76988749D01*
X170628924Y-76723317D01*
X173951500Y-76723317D01*
X173958255Y-76785499D01*
X174009385Y-76921888D01*
X174096739Y-77038444D01*
X174213295Y-77125798D01*
X174349684Y-77176928D01*
X174411866Y-77183683D01*
X176108134Y-77183683D01*
X176170316Y-77176928D01*
X176306705Y-77125798D01*
X176423261Y-77038444D01*
X176510615Y-76921888D01*
X176561745Y-76785499D01*
X176563068Y-76773317D01*
X188595478Y-76773317D01*
X188602233Y-76835499D01*
X188653363Y-76971888D01*
X188740717Y-77088444D01*
X188857273Y-77175798D01*
X188865682Y-77178950D01*
X188865683Y-77178951D01*
X188974938Y-77219909D01*
X189031703Y-77262550D01*
X189056403Y-77329112D01*
X189041196Y-77398461D01*
X189021803Y-77424942D01*
X188898568Y-77553900D01*
X188892082Y-77561910D01*
X188772076Y-77737832D01*
X188766978Y-77746806D01*
X188677316Y-77939966D01*
X188673753Y-77949653D01*
X188618367Y-78149366D01*
X188619890Y-78157790D01*
X188632270Y-78161183D01*
X191272322Y-78161183D01*
X191285853Y-78157210D01*
X191287158Y-78148130D01*
X191245192Y-77981058D01*
X191241872Y-77971307D01*
X191156950Y-77775997D01*
X191152083Y-77766922D01*
X191036404Y-77588109D01*
X191030114Y-77579940D01*
X190886271Y-77421860D01*
X190855219Y-77358014D01*
X190863613Y-77287516D01*
X190908790Y-77232747D01*
X190935234Y-77219078D01*
X191042275Y-77178950D01*
X191050683Y-77175798D01*
X191167239Y-77088444D01*
X191254593Y-76971888D01*
X191305723Y-76835499D01*
X191312478Y-76773317D01*
X191312478Y-74977049D01*
X191305723Y-74914867D01*
X191254593Y-74778478D01*
X191167239Y-74661922D01*
X191050683Y-74574568D01*
X190914294Y-74523438D01*
X190852112Y-74516683D01*
X189055844Y-74516683D01*
X188993662Y-74523438D01*
X188857273Y-74574568D01*
X188740717Y-74661922D01*
X188653363Y-74778478D01*
X188602233Y-74914867D01*
X188595478Y-74977049D01*
X188595478Y-76773317D01*
X176563068Y-76773317D01*
X176568500Y-76723317D01*
X176568500Y-75027049D01*
X176561745Y-74964867D01*
X176510615Y-74828478D01*
X176423261Y-74711922D01*
X176306705Y-74624568D01*
X176170316Y-74573438D01*
X176126748Y-74568705D01*
X176111514Y-74567050D01*
X176111511Y-74567050D01*
X176108134Y-74566683D01*
X176104815Y-74566683D01*
X176037890Y-74543030D01*
X176002196Y-74497027D01*
X176000266Y-74498042D01*
X175994558Y-74487183D01*
X175994368Y-74486938D01*
X175994347Y-74486780D01*
X175974356Y-74448749D01*
X175272812Y-73747205D01*
X175258868Y-73739591D01*
X175257035Y-73739722D01*
X175250420Y-73743973D01*
X174544923Y-74449470D01*
X174522129Y-74491212D01*
X174519953Y-74501212D01*
X174469747Y-74551410D01*
X174416186Y-74566634D01*
X174415281Y-74566683D01*
X174411866Y-74566683D01*
X174408470Y-74567052D01*
X174408468Y-74567052D01*
X174396121Y-74568393D01*
X174349684Y-74573438D01*
X174213295Y-74624568D01*
X174096739Y-74711922D01*
X174009385Y-74828478D01*
X173958255Y-74964867D01*
X173951500Y-75027049D01*
X173951500Y-76723317D01*
X170628924Y-76723317D01*
X170192812Y-76287205D01*
X170178868Y-76279591D01*
X170177035Y-76279722D01*
X170170420Y-76283973D01*
X169464923Y-76989470D01*
X169442129Y-77031212D01*
X169439953Y-77041212D01*
X169389747Y-77091410D01*
X169336186Y-77106634D01*
X169335281Y-77106683D01*
X169331866Y-77106683D01*
X169328470Y-77107052D01*
X169328468Y-77107052D01*
X169316121Y-77108393D01*
X169269684Y-77113438D01*
X169133295Y-77164568D01*
X169016739Y-77251922D01*
X168929385Y-77368478D01*
X168878255Y-77504867D01*
X168871500Y-77567049D01*
X168871500Y-79263317D01*
X161798000Y-79263317D01*
X161798000Y-78470634D01*
X163990478Y-78470634D01*
X163997233Y-78532816D01*
X164048363Y-78669205D01*
X164135717Y-78785761D01*
X164252273Y-78873115D01*
X164388662Y-78924245D01*
X164450844Y-78931000D01*
X166547112Y-78931000D01*
X166609294Y-78924245D01*
X166745683Y-78873115D01*
X166862239Y-78785761D01*
X166949593Y-78669205D01*
X167000723Y-78532816D01*
X167007478Y-78470634D01*
X167007478Y-76469366D01*
X167000723Y-76407184D01*
X166949593Y-76270795D01*
X166862239Y-76154239D01*
X166745683Y-76066885D01*
X166725295Y-76059242D01*
X166668531Y-76016599D01*
X166643832Y-75950038D01*
X166650275Y-75920658D01*
X168867483Y-75920658D01*
X168886472Y-76137702D01*
X168888375Y-76148495D01*
X168944764Y-76358944D01*
X168948510Y-76369236D01*
X169040586Y-76566694D01*
X169046069Y-76576189D01*
X169082509Y-76628231D01*
X169092988Y-76636607D01*
X169106434Y-76629539D01*
X169807978Y-75927995D01*
X169814356Y-75916315D01*
X170544408Y-75916315D01*
X170544539Y-75918148D01*
X170548790Y-75924763D01*
X171254287Y-76630260D01*
X171266062Y-76636690D01*
X171278077Y-76627394D01*
X171313931Y-76576189D01*
X171319414Y-76566694D01*
X171411490Y-76369236D01*
X171415236Y-76358944D01*
X171471625Y-76148495D01*
X171473528Y-76137702D01*
X171492517Y-75920658D01*
X171492517Y-75909708D01*
X171473528Y-75692664D01*
X171471625Y-75681871D01*
X171415236Y-75471422D01*
X171411490Y-75461130D01*
X171319414Y-75263672D01*
X171313931Y-75254177D01*
X171277491Y-75202135D01*
X171267012Y-75193759D01*
X171253566Y-75200827D01*
X170552022Y-75902371D01*
X170544408Y-75916315D01*
X169814356Y-75916315D01*
X169815592Y-75914051D01*
X169815461Y-75912218D01*
X169811210Y-75905603D01*
X169105713Y-75200106D01*
X169093938Y-75193676D01*
X169081923Y-75202972D01*
X169046069Y-75254177D01*
X169040586Y-75263672D01*
X168948510Y-75461130D01*
X168944764Y-75471422D01*
X168888375Y-75681871D01*
X168886472Y-75692664D01*
X168867483Y-75909708D01*
X168867483Y-75920658D01*
X166650275Y-75920658D01*
X166659040Y-75880689D01*
X166670644Y-75863168D01*
X166763923Y-75745056D01*
X166769628Y-75736469D01*
X166880692Y-75535278D01*
X166884922Y-75525866D01*
X166961637Y-75309232D01*
X166964271Y-75299261D01*
X166981625Y-75201837D01*
X166980165Y-75188540D01*
X166965608Y-75184000D01*
X164030882Y-75184000D01*
X164017538Y-75187918D01*
X164015551Y-75202194D01*
X164025088Y-75264515D01*
X164027477Y-75274543D01*
X164098876Y-75492988D01*
X164102873Y-75502497D01*
X164208989Y-75706344D01*
X164214478Y-75715061D01*
X164327880Y-75866099D01*
X164352785Y-75932584D01*
X164337792Y-76001980D01*
X164287662Y-76052253D01*
X164271353Y-76059732D01*
X164252273Y-76066885D01*
X164135717Y-76154239D01*
X164048363Y-76270795D01*
X163997233Y-76407184D01*
X163990478Y-76469366D01*
X163990478Y-78470634D01*
X161798000Y-78470634D01*
X161798000Y-74828171D01*
X169458576Y-74828171D01*
X169465644Y-74841617D01*
X170167188Y-75543161D01*
X170181132Y-75550775D01*
X170182965Y-75550644D01*
X170189580Y-75546393D01*
X170895077Y-74840896D01*
X170901507Y-74829121D01*
X170892211Y-74817106D01*
X170841006Y-74781252D01*
X170831511Y-74775769D01*
X170634053Y-74683693D01*
X170623761Y-74679947D01*
X170413312Y-74623558D01*
X170402519Y-74621655D01*
X170185475Y-74602666D01*
X170174525Y-74602666D01*
X169957481Y-74621655D01*
X169946688Y-74623558D01*
X169736239Y-74679947D01*
X169725947Y-74683693D01*
X169528489Y-74775769D01*
X169518994Y-74781252D01*
X169466952Y-74817692D01*
X169458576Y-74828171D01*
X161798000Y-74828171D01*
X161798000Y-72492263D01*
X163989042Y-72492263D01*
X164025382Y-72729744D01*
X164062072Y-72841997D01*
X164098412Y-72953183D01*
X164098415Y-72953189D01*
X164100020Y-72958101D01*
X164102407Y-72962687D01*
X164102409Y-72962691D01*
X164195685Y-73141871D01*
X164210953Y-73171200D01*
X164214063Y-73175342D01*
X164313452Y-73307715D01*
X164355201Y-73363320D01*
X164370718Y-73378148D01*
X164495958Y-73497830D01*
X164528890Y-73529301D01*
X164566329Y-73554840D01*
X164611330Y-73609751D01*
X164619501Y-73680275D01*
X164588247Y-73744022D01*
X164563768Y-73764716D01*
X164561652Y-73766085D01*
X164553480Y-73772378D01*
X164383498Y-73927050D01*
X164376472Y-73934583D01*
X164234033Y-74114944D01*
X164228328Y-74123531D01*
X164117264Y-74324722D01*
X164113034Y-74334134D01*
X164036319Y-74550768D01*
X164033685Y-74560739D01*
X164016331Y-74658163D01*
X164017791Y-74671460D01*
X164032348Y-74676000D01*
X166967074Y-74676000D01*
X166980418Y-74672082D01*
X166982405Y-74657806D01*
X166972868Y-74595485D01*
X166970479Y-74585457D01*
X166899080Y-74367012D01*
X166895083Y-74357503D01*
X166788967Y-74153656D01*
X166783473Y-74144931D01*
X166645485Y-73961148D01*
X166638642Y-73953441D01*
X166472487Y-73794661D01*
X166464480Y-73788177D01*
X166431622Y-73765763D01*
X166386619Y-73710852D01*
X166378446Y-73640328D01*
X166409700Y-73576580D01*
X166434182Y-73555884D01*
X166436613Y-73554311D01*
X166440955Y-73551502D01*
X166618648Y-73389814D01*
X166625879Y-73380658D01*
X173947483Y-73380658D01*
X173966472Y-73597702D01*
X173968375Y-73608495D01*
X174024764Y-73818944D01*
X174028510Y-73829236D01*
X174120586Y-74026694D01*
X174126069Y-74036189D01*
X174162509Y-74088231D01*
X174172988Y-74096607D01*
X174186434Y-74089539D01*
X174887978Y-73387995D01*
X174894356Y-73376315D01*
X175624408Y-73376315D01*
X175624539Y-73378148D01*
X175628790Y-73384763D01*
X176334287Y-74090260D01*
X176346062Y-74096690D01*
X176358077Y-74087394D01*
X176393931Y-74036189D01*
X176399414Y-74026694D01*
X176491490Y-73829236D01*
X176495236Y-73818944D01*
X176551625Y-73608495D01*
X176553528Y-73597702D01*
X176572517Y-73380658D01*
X176572517Y-73369708D01*
X176561006Y-73238134D01*
X178485478Y-73238134D01*
X178492233Y-73300316D01*
X178543363Y-73436705D01*
X178630717Y-73553261D01*
X178747273Y-73640615D01*
X178883662Y-73691745D01*
X178945844Y-73698500D01*
X180642112Y-73698500D01*
X180704294Y-73691745D01*
X180840683Y-73640615D01*
X180957239Y-73553261D01*
X180963152Y-73545372D01*
X180963856Y-73544845D01*
X180968970Y-73539731D01*
X180969708Y-73540469D01*
X181020009Y-73502857D01*
X181090827Y-73497830D01*
X181153121Y-73531888D01*
X181164801Y-73545367D01*
X181170717Y-73553261D01*
X181287273Y-73640615D01*
X181423662Y-73691745D01*
X181485844Y-73698500D01*
X183182112Y-73698500D01*
X183244294Y-73691745D01*
X183380683Y-73640615D01*
X183497239Y-73553261D01*
X183584593Y-73436705D01*
X183635723Y-73300316D01*
X183642478Y-73238134D01*
X183642478Y-71541866D01*
X183635723Y-71479684D01*
X183584593Y-71343295D01*
X183497239Y-71226739D01*
X183380683Y-71139385D01*
X183244294Y-71088255D01*
X183182112Y-71081500D01*
X181485844Y-71081500D01*
X181423662Y-71088255D01*
X181287273Y-71139385D01*
X181170717Y-71226739D01*
X181164804Y-71234628D01*
X181164100Y-71235155D01*
X181158986Y-71240269D01*
X181158248Y-71239531D01*
X181107947Y-71277143D01*
X181037129Y-71282170D01*
X180974835Y-71248112D01*
X180963155Y-71234633D01*
X180957239Y-71226739D01*
X180840683Y-71139385D01*
X180704294Y-71088255D01*
X180642112Y-71081500D01*
X178945844Y-71081500D01*
X178883662Y-71088255D01*
X178747273Y-71139385D01*
X178630717Y-71226739D01*
X178543363Y-71343295D01*
X178492233Y-71479684D01*
X178485478Y-71541866D01*
X178485478Y-73238134D01*
X176561006Y-73238134D01*
X176553528Y-73152664D01*
X176551625Y-73141871D01*
X176495236Y-72931422D01*
X176491490Y-72921130D01*
X176399414Y-72723672D01*
X176393931Y-72714177D01*
X176357491Y-72662135D01*
X176347012Y-72653759D01*
X176333566Y-72660827D01*
X175632022Y-73362371D01*
X175624408Y-73376315D01*
X174894356Y-73376315D01*
X174895592Y-73374051D01*
X174895461Y-73372218D01*
X174891210Y-73365603D01*
X174185713Y-72660106D01*
X174173938Y-72653676D01*
X174161923Y-72662972D01*
X174126069Y-72714177D01*
X174120586Y-72723672D01*
X174028510Y-72921130D01*
X174024764Y-72931422D01*
X173968375Y-73141871D01*
X173966472Y-73152664D01*
X173947483Y-73369708D01*
X173947483Y-73380658D01*
X166625879Y-73380658D01*
X166689329Y-73300316D01*
X166764345Y-73205330D01*
X166764348Y-73205325D01*
X166767546Y-73201276D01*
X166781863Y-73175342D01*
X166881155Y-72995474D01*
X166881157Y-72995470D01*
X166883652Y-72990950D01*
X166963848Y-72764485D01*
X166969161Y-72734659D01*
X167005073Y-72533052D01*
X167005074Y-72533046D01*
X167005979Y-72527963D01*
X167007046Y-72440600D01*
X167008851Y-72292907D01*
X167008851Y-72292905D01*
X167008909Y-72288171D01*
X174538576Y-72288171D01*
X174545644Y-72301617D01*
X175247188Y-73003161D01*
X175261132Y-73010775D01*
X175262965Y-73010644D01*
X175269580Y-73006393D01*
X175975077Y-72300896D01*
X175981507Y-72289121D01*
X175972211Y-72277106D01*
X175921006Y-72241252D01*
X175911511Y-72235769D01*
X175714053Y-72143693D01*
X175703761Y-72139947D01*
X175493312Y-72083558D01*
X175482519Y-72081655D01*
X175265475Y-72062666D01*
X175254525Y-72062666D01*
X175037481Y-72081655D01*
X175026688Y-72083558D01*
X174816239Y-72139947D01*
X174805947Y-72143693D01*
X174608489Y-72235769D01*
X174598994Y-72241252D01*
X174546952Y-72277692D01*
X174538576Y-72288171D01*
X167008909Y-72288171D01*
X167008914Y-72287737D01*
X166972574Y-72050256D01*
X166935884Y-71938003D01*
X166899544Y-71826817D01*
X166899541Y-71826811D01*
X166897936Y-71821899D01*
X166787003Y-71608800D01*
X166739313Y-71545283D01*
X166645860Y-71420815D01*
X166645858Y-71420812D01*
X166642755Y-71416680D01*
X166535913Y-71314579D01*
X166472805Y-71254272D01*
X166469066Y-71250699D01*
X166270600Y-71115314D01*
X166265917Y-71113140D01*
X166265913Y-71113138D01*
X166057383Y-71016342D01*
X166057379Y-71016341D01*
X166052688Y-71014163D01*
X165821180Y-70949960D01*
X165816043Y-70949411D01*
X165628385Y-70929356D01*
X165628377Y-70929356D01*
X165625050Y-70929000D01*
X165390576Y-70929000D01*
X165388003Y-70929212D01*
X165387992Y-70929212D01*
X165287032Y-70937513D01*
X165212041Y-70943678D01*
X164979034Y-71002206D01*
X164850207Y-71058221D01*
X164763452Y-71095943D01*
X164763449Y-71095945D01*
X164758715Y-71098003D01*
X164686423Y-71144771D01*
X164568038Y-71221358D01*
X164557001Y-71228498D01*
X164379308Y-71390186D01*
X164355119Y-71420815D01*
X164233611Y-71574670D01*
X164233608Y-71574675D01*
X164230410Y-71578724D01*
X164227917Y-71583240D01*
X164227915Y-71583243D01*
X164116801Y-71784526D01*
X164114304Y-71789050D01*
X164034108Y-72015515D01*
X164033201Y-72020608D01*
X164033200Y-72020611D01*
X163994875Y-72235769D01*
X163991977Y-72252037D01*
X163989042Y-72492263D01*
X161798000Y-72492263D01*
X161798000Y-69214000D01*
X161818002Y-69145879D01*
X161871658Y-69099386D01*
X161924000Y-69088000D01*
X192406000Y-69088000D01*
X192474121Y-69108002D01*
G37*
%TD.AperFunction*%
%TD*%
M02*
