%TF.GenerationSoftware,KiCad,Pcbnew,6.0.0*%
%TF.CreationDate,2022-01-12T15:09:48-07:00*%
%TF.ProjectId,cr3-power-regulator,6372332d-706f-4776-9572-2d726567756c,rev?*%
%TF.SameCoordinates,Original*%
%TF.FileFunction,Copper,L2,Bot*%
%TF.FilePolarity,Positive*%
%FSLAX46Y46*%
G04 Gerber Fmt 4.6, Leading zero omitted, Abs format (unit mm)*
G04 Created by KiCad (PCBNEW 6.0.0) date 2022-01-12 15:09:48*
%MOMM*%
%LPD*%
G01*
G04 APERTURE LIST*
%TA.AperFunction,ComponentPad*%
%ADD10O,1.600000X1.600000*%
%TD*%
%TA.AperFunction,ComponentPad*%
%ADD11R,1.600000X1.600000*%
%TD*%
%TA.AperFunction,ComponentPad*%
%ADD12C,1.600000*%
%TD*%
%TA.AperFunction,ComponentPad*%
%ADD13O,0.850000X0.850000*%
%TD*%
%TA.AperFunction,ComponentPad*%
%ADD14R,0.850000X0.850000*%
%TD*%
G04 APERTURE END LIST*
D10*
%TO.P,D4,2,A*%
%TO.N,IN_N*%
X182920000Y-90170000D03*
D11*
%TO.P,D4,1,K*%
%TO.N,OUT_N*%
X182920000Y-82550000D03*
%TD*%
D12*
%TO.P,C4,2*%
%TO.N,OUT_N*%
X175260000Y-83900000D03*
%TO.P,C4,1*%
%TO.N,GND*%
X175260000Y-88900000D03*
%TD*%
%TO.P,C3,1*%
%TO.N,OUT_P*%
X175260000Y-78740000D03*
%TO.P,C3,2*%
%TO.N,GND*%
X175260000Y-73740000D03*
%TD*%
%TO.P,C2,2*%
%TO.N,IN_N*%
X170180000Y-88820000D03*
%TO.P,C2,1*%
%TO.N,GND*%
X170180000Y-83820000D03*
%TD*%
%TO.P,C1,1*%
%TO.N,IN_P*%
X170180000Y-78740000D03*
%TO.P,C1,2*%
%TO.N,GND*%
X170180000Y-73740000D03*
%TD*%
D13*
%TO.P,U2,3,VO*%
%TO.N,OUT_N*%
X165100000Y-84360000D03*
%TO.P,U2,2,VI*%
%TO.N,IN_N*%
X165100000Y-85360000D03*
D14*
%TO.P,U2,1,GND*%
%TO.N,GND*%
X165100000Y-86360000D03*
%TD*%
%TO.P,U1,1,IN*%
%TO.N,IN_P*%
X165100000Y-78740000D03*
D13*
%TO.P,U1,2,GND*%
%TO.N,GND*%
X165100000Y-77740000D03*
%TO.P,U1,3,OUT*%
%TO.N,OUT_P*%
X165100000Y-76740000D03*
%TD*%
D14*
%TO.P,J1,1,Pin_1*%
%TO.N,IN_P*%
X187960000Y-78740000D03*
D13*
%TO.P,J1,2,Pin_2*%
%TO.N,GND*%
X187960000Y-79740000D03*
%TO.P,J1,3,Pin_3*%
%TO.N,OUT_P*%
X187960000Y-80740000D03*
%TO.P,J1,4,Pin_4*%
%TO.N,OUT_N*%
X187960000Y-81740000D03*
%TO.P,J1,5,Pin_5*%
%TO.N,GND*%
X187960000Y-82740000D03*
%TO.P,J1,6,Pin_6*%
%TO.N,IN_N*%
X187960000Y-83740000D03*
%TD*%
D10*
%TO.P,D3,2,A*%
%TO.N,OUT_N*%
X180380000Y-90170000D03*
D11*
%TO.P,D3,1,K*%
%TO.N,GND*%
X180380000Y-82550000D03*
%TD*%
D10*
%TO.P,D2,2,A*%
%TO.N,GND*%
X182880000Y-80010000D03*
D11*
%TO.P,D2,1,K*%
%TO.N,OUT_P*%
X182880000Y-72390000D03*
%TD*%
D10*
%TO.P,D1,2,A*%
%TO.N,OUT_P*%
X180340000Y-80010000D03*
D11*
%TO.P,D1,1,K*%
%TO.N,IN_P*%
X180340000Y-72390000D03*
%TD*%
%TA.AperFunction,Conductor*%
%TO.N,GND*%
G36*
X178999021Y-71301108D02*
G01*
X179045514Y-71354764D01*
X179055618Y-71425038D01*
X179048882Y-71451335D01*
X179041029Y-71472282D01*
X179041027Y-71472288D01*
X179038255Y-71479684D01*
X179031500Y-71541866D01*
X179031500Y-73238134D01*
X179038255Y-73300316D01*
X179089385Y-73436705D01*
X179176739Y-73553261D01*
X179293295Y-73640615D01*
X179429684Y-73691745D01*
X179491866Y-73698500D01*
X181188134Y-73698500D01*
X181250316Y-73691745D01*
X181386705Y-73640615D01*
X181503261Y-73553261D01*
X181509174Y-73545372D01*
X181509878Y-73544845D01*
X181514992Y-73539731D01*
X181515730Y-73540469D01*
X181566031Y-73502857D01*
X181636849Y-73497830D01*
X181699143Y-73531888D01*
X181710823Y-73545367D01*
X181716739Y-73553261D01*
X181833295Y-73640615D01*
X181969684Y-73691745D01*
X182031866Y-73698500D01*
X183728134Y-73698500D01*
X183790316Y-73691745D01*
X183926705Y-73640615D01*
X184043261Y-73553261D01*
X184130615Y-73436705D01*
X184181745Y-73300316D01*
X184188500Y-73238134D01*
X184188500Y-71541866D01*
X184181745Y-71479684D01*
X184178973Y-71472288D01*
X184178971Y-71472282D01*
X184171118Y-71451335D01*
X184165935Y-71380528D01*
X184199856Y-71318159D01*
X184262112Y-71284030D01*
X184289100Y-71281106D01*
X188620407Y-71281106D01*
X188688528Y-71301108D01*
X188735021Y-71354764D01*
X188746407Y-71407106D01*
X188746407Y-77725586D01*
X188726405Y-77793707D01*
X188672749Y-77840200D01*
X188602475Y-77850304D01*
X188576178Y-77843568D01*
X188502718Y-77816029D01*
X188502712Y-77816027D01*
X188495316Y-77813255D01*
X188433134Y-77806500D01*
X187486866Y-77806500D01*
X187424684Y-77813255D01*
X187288295Y-77864385D01*
X187171739Y-77951739D01*
X187084385Y-78068295D01*
X187033255Y-78204684D01*
X187026500Y-78266866D01*
X187026500Y-79213134D01*
X187033255Y-79275316D01*
X187060876Y-79348993D01*
X187069598Y-79372260D01*
X187074781Y-79443067D01*
X187071450Y-79455425D01*
X187067114Y-79468770D01*
X187066712Y-79482866D01*
X187073085Y-79486000D01*
X187079087Y-79486000D01*
X187147208Y-79506002D01*
X187167028Y-79521975D01*
X187171739Y-79528261D01*
X187288295Y-79615615D01*
X187424684Y-79666745D01*
X187432536Y-79667598D01*
X187432540Y-79667599D01*
X187480848Y-79672846D01*
X187483470Y-79673131D01*
X187483580Y-79673143D01*
X187549143Y-79700385D01*
X187589569Y-79758748D01*
X187592025Y-79829702D01*
X187555730Y-79890720D01*
X187521223Y-79913512D01*
X187496714Y-79924424D01*
X187496706Y-79924429D01*
X187490679Y-79927112D01*
X187485338Y-79930992D01*
X187485337Y-79930993D01*
X187431737Y-79969936D01*
X187364869Y-79993794D01*
X187357676Y-79994000D01*
X187079631Y-79994000D01*
X187066100Y-79997973D01*
X187065090Y-80005000D01*
X187100927Y-80115296D01*
X187106266Y-80127288D01*
X187134678Y-80176499D01*
X187151416Y-80245494D01*
X187134678Y-80302500D01*
X187102508Y-80358220D01*
X187041870Y-80544845D01*
X187021358Y-80740000D01*
X187022048Y-80746565D01*
X187032898Y-80849789D01*
X187041870Y-80935155D01*
X187043910Y-80941433D01*
X187043910Y-80941434D01*
X187068202Y-81016198D01*
X187102508Y-81121780D01*
X187105811Y-81127502D01*
X187105812Y-81127503D01*
X187134389Y-81177000D01*
X187151127Y-81245996D01*
X187134389Y-81303000D01*
X187134076Y-81303543D01*
X187102508Y-81358220D01*
X187086163Y-81408526D01*
X187052560Y-81511946D01*
X187041870Y-81544845D01*
X187041180Y-81551408D01*
X187041180Y-81551409D01*
X187032668Y-81632394D01*
X187021358Y-81740000D01*
X187041870Y-81935155D01*
X187102508Y-82121780D01*
X187105811Y-82127502D01*
X187105812Y-82127503D01*
X187134678Y-82177500D01*
X187151416Y-82246495D01*
X187134678Y-82303501D01*
X187106266Y-82352712D01*
X187100927Y-82364704D01*
X187067115Y-82468768D01*
X187066712Y-82482868D01*
X187073083Y-82486000D01*
X187357676Y-82486000D01*
X187425797Y-82506002D01*
X187431737Y-82510064D01*
X187454321Y-82526472D01*
X187490679Y-82552888D01*
X187496707Y-82555572D01*
X187496709Y-82555573D01*
X187652405Y-82624893D01*
X187706501Y-82670873D01*
X187727150Y-82738800D01*
X187707798Y-82807109D01*
X187652405Y-82855107D01*
X187496709Y-82924427D01*
X187496707Y-82924428D01*
X187490679Y-82927112D01*
X187485338Y-82930992D01*
X187485337Y-82930993D01*
X187431737Y-82969936D01*
X187364869Y-82993794D01*
X187357676Y-82994000D01*
X187079631Y-82994000D01*
X187066100Y-82997973D01*
X187065090Y-83005000D01*
X187100927Y-83115296D01*
X187106266Y-83127288D01*
X187134678Y-83176499D01*
X187151416Y-83245494D01*
X187134678Y-83302500D01*
X187102508Y-83358220D01*
X187041870Y-83544845D01*
X187041180Y-83551408D01*
X187041180Y-83551409D01*
X187024923Y-83706081D01*
X187021358Y-83740000D01*
X187022048Y-83746565D01*
X187037600Y-83894525D01*
X187041870Y-83935155D01*
X187043910Y-83941433D01*
X187043910Y-83941434D01*
X187076755Y-84042519D01*
X187102508Y-84121780D01*
X187200623Y-84291720D01*
X187205041Y-84296627D01*
X187205042Y-84296628D01*
X187327504Y-84432636D01*
X187331926Y-84437547D01*
X187337268Y-84441428D01*
X187337270Y-84441430D01*
X187485337Y-84549007D01*
X187490679Y-84552888D01*
X187496707Y-84555572D01*
X187496709Y-84555573D01*
X187663913Y-84630017D01*
X187669944Y-84632702D01*
X187765914Y-84653101D01*
X187855428Y-84672128D01*
X187855432Y-84672128D01*
X187861885Y-84673500D01*
X188058115Y-84673500D01*
X188064568Y-84672128D01*
X188064572Y-84672128D01*
X188154086Y-84653101D01*
X188250056Y-84632702D01*
X188256087Y-84630017D01*
X188423291Y-84555573D01*
X188423293Y-84555572D01*
X188429321Y-84552888D01*
X188435236Y-84548591D01*
X188528258Y-84481006D01*
X188546347Y-84467864D01*
X188613214Y-84444006D01*
X188682365Y-84460086D01*
X188731845Y-84511000D01*
X188746407Y-84569800D01*
X188746407Y-91209892D01*
X188726405Y-91278013D01*
X188672749Y-91324506D01*
X188620407Y-91335892D01*
X183908796Y-91335892D01*
X183840675Y-91315890D01*
X183794182Y-91262234D01*
X183784078Y-91191960D01*
X183813572Y-91127380D01*
X183819701Y-91120797D01*
X183926198Y-91014300D01*
X184057523Y-90826749D01*
X184059846Y-90821767D01*
X184059849Y-90821762D01*
X184151961Y-90624225D01*
X184151961Y-90624224D01*
X184154284Y-90619243D01*
X184213543Y-90398087D01*
X184233498Y-90170000D01*
X184213543Y-89941913D01*
X184190000Y-89854050D01*
X184155707Y-89726067D01*
X184155706Y-89726065D01*
X184154284Y-89720757D01*
X184127958Y-89664300D01*
X184059849Y-89518238D01*
X184059846Y-89518233D01*
X184057523Y-89513251D01*
X183946051Y-89354053D01*
X183929357Y-89330211D01*
X183929355Y-89330208D01*
X183926198Y-89325700D01*
X183764300Y-89163802D01*
X183759792Y-89160645D01*
X183759789Y-89160643D01*
X183681611Y-89105902D01*
X183576749Y-89032477D01*
X183571767Y-89030154D01*
X183571762Y-89030151D01*
X183374225Y-88938039D01*
X183374224Y-88938039D01*
X183369243Y-88935716D01*
X183363935Y-88934294D01*
X183363933Y-88934293D01*
X183153402Y-88877881D01*
X183153400Y-88877881D01*
X183148087Y-88876457D01*
X182920000Y-88856502D01*
X182691913Y-88876457D01*
X182686600Y-88877881D01*
X182686598Y-88877881D01*
X182476067Y-88934293D01*
X182476065Y-88934294D01*
X182470757Y-88935716D01*
X182465776Y-88938039D01*
X182465775Y-88938039D01*
X182268238Y-89030151D01*
X182268233Y-89030154D01*
X182263251Y-89032477D01*
X182158389Y-89105902D01*
X182080211Y-89160643D01*
X182080208Y-89160645D01*
X182075700Y-89163802D01*
X181913802Y-89325700D01*
X181910645Y-89330208D01*
X181910643Y-89330211D01*
X181893949Y-89354053D01*
X181782477Y-89513251D01*
X181780154Y-89518233D01*
X181780151Y-89518238D01*
X181764195Y-89552457D01*
X181717278Y-89605742D01*
X181649001Y-89625203D01*
X181581041Y-89604661D01*
X181535805Y-89552457D01*
X181519849Y-89518238D01*
X181519846Y-89518233D01*
X181517523Y-89513251D01*
X181406051Y-89354053D01*
X181389357Y-89330211D01*
X181389355Y-89330208D01*
X181386198Y-89325700D01*
X181224300Y-89163802D01*
X181219792Y-89160645D01*
X181219789Y-89160643D01*
X181141611Y-89105902D01*
X181036749Y-89032477D01*
X181031767Y-89030154D01*
X181031762Y-89030151D01*
X180834225Y-88938039D01*
X180834224Y-88938039D01*
X180829243Y-88935716D01*
X180823935Y-88934294D01*
X180823933Y-88934293D01*
X180613402Y-88877881D01*
X180613400Y-88877881D01*
X180608087Y-88876457D01*
X180380000Y-88856502D01*
X180151913Y-88876457D01*
X180146600Y-88877881D01*
X180146598Y-88877881D01*
X179936067Y-88934293D01*
X179936065Y-88934294D01*
X179930757Y-88935716D01*
X179925776Y-88938039D01*
X179925775Y-88938039D01*
X179728238Y-89030151D01*
X179728233Y-89030154D01*
X179723251Y-89032477D01*
X179618389Y-89105902D01*
X179540211Y-89160643D01*
X179540208Y-89160645D01*
X179535700Y-89163802D01*
X179373802Y-89325700D01*
X179370645Y-89330208D01*
X179370643Y-89330211D01*
X179353949Y-89354053D01*
X179242477Y-89513251D01*
X179240154Y-89518233D01*
X179240151Y-89518238D01*
X179172042Y-89664300D01*
X179145716Y-89720757D01*
X179144294Y-89726065D01*
X179144293Y-89726067D01*
X179110000Y-89854050D01*
X179086457Y-89941913D01*
X179066502Y-90170000D01*
X179086457Y-90398087D01*
X179145716Y-90619243D01*
X179148039Y-90624224D01*
X179148039Y-90624225D01*
X179240151Y-90821762D01*
X179240154Y-90821767D01*
X179242477Y-90826749D01*
X179373802Y-91014300D01*
X179480299Y-91120797D01*
X179514325Y-91183109D01*
X179509260Y-91253924D01*
X179466713Y-91310760D01*
X179400193Y-91335571D01*
X179391204Y-91335892D01*
X164365108Y-91335892D01*
X164296987Y-91315890D01*
X164250494Y-91262234D01*
X164239108Y-91209892D01*
X164239108Y-88820000D01*
X168866502Y-88820000D01*
X168886457Y-89048087D01*
X168887881Y-89053400D01*
X168887881Y-89053402D01*
X168916617Y-89160643D01*
X168945716Y-89269243D01*
X168948039Y-89274224D01*
X168948039Y-89274225D01*
X169040151Y-89471762D01*
X169040154Y-89471767D01*
X169042477Y-89476749D01*
X169101475Y-89561006D01*
X169139336Y-89615077D01*
X169173802Y-89664300D01*
X169335700Y-89826198D01*
X169340208Y-89829355D01*
X169340211Y-89829357D01*
X169418389Y-89884098D01*
X169523251Y-89957523D01*
X169528233Y-89959846D01*
X169528238Y-89959849D01*
X169698868Y-90039414D01*
X169730757Y-90054284D01*
X169736065Y-90055706D01*
X169736067Y-90055707D01*
X169946598Y-90112119D01*
X169946600Y-90112119D01*
X169951913Y-90113543D01*
X170180000Y-90133498D01*
X170408087Y-90113543D01*
X170413400Y-90112119D01*
X170413402Y-90112119D01*
X170623933Y-90055707D01*
X170623935Y-90055706D01*
X170629243Y-90054284D01*
X170661132Y-90039414D01*
X170775547Y-89986062D01*
X174538493Y-89986062D01*
X174547789Y-89998077D01*
X174598994Y-90033931D01*
X174608489Y-90039414D01*
X174805947Y-90131490D01*
X174816239Y-90135236D01*
X175026688Y-90191625D01*
X175037481Y-90193528D01*
X175254525Y-90212517D01*
X175265475Y-90212517D01*
X175482519Y-90193528D01*
X175493312Y-90191625D01*
X175703761Y-90135236D01*
X175714053Y-90131490D01*
X175911511Y-90039414D01*
X175921006Y-90033931D01*
X175973048Y-89997491D01*
X175981424Y-89987012D01*
X175974356Y-89973566D01*
X175272812Y-89272022D01*
X175258868Y-89264408D01*
X175257035Y-89264539D01*
X175250420Y-89268790D01*
X174544923Y-89974287D01*
X174538493Y-89986062D01*
X170775547Y-89986062D01*
X170831762Y-89959849D01*
X170831767Y-89959846D01*
X170836749Y-89957523D01*
X170941611Y-89884098D01*
X171019789Y-89829357D01*
X171019792Y-89829355D01*
X171024300Y-89826198D01*
X171186198Y-89664300D01*
X171220665Y-89615077D01*
X171258525Y-89561006D01*
X171317523Y-89476749D01*
X171319846Y-89471767D01*
X171319849Y-89471762D01*
X171411961Y-89274225D01*
X171411961Y-89274224D01*
X171414284Y-89269243D01*
X171443384Y-89160643D01*
X171472119Y-89053402D01*
X171472119Y-89053400D01*
X171473543Y-89048087D01*
X171486020Y-88905475D01*
X173947483Y-88905475D01*
X173966472Y-89122519D01*
X173968375Y-89133312D01*
X174024764Y-89343761D01*
X174028510Y-89354053D01*
X174120586Y-89551511D01*
X174126069Y-89561006D01*
X174162509Y-89613048D01*
X174172988Y-89621424D01*
X174186434Y-89614356D01*
X174887978Y-88912812D01*
X174894356Y-88901132D01*
X175624408Y-88901132D01*
X175624539Y-88902965D01*
X175628790Y-88909580D01*
X176334287Y-89615077D01*
X176346062Y-89621507D01*
X176358077Y-89612211D01*
X176393931Y-89561006D01*
X176399414Y-89551511D01*
X176491490Y-89354053D01*
X176495236Y-89343761D01*
X176551625Y-89133312D01*
X176553528Y-89122519D01*
X176572517Y-88905475D01*
X176572517Y-88894525D01*
X176553528Y-88677481D01*
X176551625Y-88666688D01*
X176495236Y-88456239D01*
X176491490Y-88445947D01*
X176399414Y-88248489D01*
X176393931Y-88238994D01*
X176357491Y-88186952D01*
X176347012Y-88178576D01*
X176333566Y-88185644D01*
X175632022Y-88887188D01*
X175624408Y-88901132D01*
X174894356Y-88901132D01*
X174895592Y-88898868D01*
X174895461Y-88897035D01*
X174891210Y-88890420D01*
X174185713Y-88184923D01*
X174173938Y-88178493D01*
X174161923Y-88187789D01*
X174126069Y-88238994D01*
X174120586Y-88248489D01*
X174028510Y-88445947D01*
X174024764Y-88456239D01*
X173968375Y-88666688D01*
X173966472Y-88677481D01*
X173947483Y-88894525D01*
X173947483Y-88905475D01*
X171486020Y-88905475D01*
X171493498Y-88820000D01*
X171473543Y-88591913D01*
X171414284Y-88370757D01*
X171357270Y-88248489D01*
X171319849Y-88168238D01*
X171319846Y-88168233D01*
X171317523Y-88163251D01*
X171186198Y-87975700D01*
X171024300Y-87813802D01*
X171023138Y-87812988D01*
X174538576Y-87812988D01*
X174545644Y-87826434D01*
X175247188Y-88527978D01*
X175261132Y-88535592D01*
X175262965Y-88535461D01*
X175269580Y-88531210D01*
X175975077Y-87825713D01*
X175981507Y-87813938D01*
X175972211Y-87801923D01*
X175921006Y-87766069D01*
X175911511Y-87760586D01*
X175714053Y-87668510D01*
X175703761Y-87664764D01*
X175493312Y-87608375D01*
X175482519Y-87606472D01*
X175265475Y-87587483D01*
X175254525Y-87587483D01*
X175037481Y-87606472D01*
X175026688Y-87608375D01*
X174816239Y-87664764D01*
X174805947Y-87668510D01*
X174608489Y-87760586D01*
X174598994Y-87766069D01*
X174546952Y-87802509D01*
X174538576Y-87812988D01*
X171023138Y-87812988D01*
X171019792Y-87810645D01*
X171019789Y-87810643D01*
X170941611Y-87755902D01*
X170836749Y-87682477D01*
X170831767Y-87680154D01*
X170831762Y-87680151D01*
X170634225Y-87588039D01*
X170634224Y-87588039D01*
X170629243Y-87585716D01*
X170623935Y-87584294D01*
X170623933Y-87584293D01*
X170413402Y-87527881D01*
X170413400Y-87527881D01*
X170408087Y-87526457D01*
X170180000Y-87506502D01*
X169951913Y-87526457D01*
X169946600Y-87527881D01*
X169946598Y-87527881D01*
X169736067Y-87584293D01*
X169736065Y-87584294D01*
X169730757Y-87585716D01*
X169725776Y-87588039D01*
X169725775Y-87588039D01*
X169528238Y-87680151D01*
X169528233Y-87680154D01*
X169523251Y-87682477D01*
X169418389Y-87755902D01*
X169340211Y-87810643D01*
X169340208Y-87810645D01*
X169335700Y-87813802D01*
X169173802Y-87975700D01*
X169042477Y-88163251D01*
X169040154Y-88168233D01*
X169040151Y-88168238D01*
X169002730Y-88248489D01*
X168945716Y-88370757D01*
X168886457Y-88591913D01*
X168866502Y-88820000D01*
X164239108Y-88820000D01*
X164239108Y-87342642D01*
X164259110Y-87274521D01*
X164312766Y-87228028D01*
X164383040Y-87217924D01*
X164425618Y-87232122D01*
X164436946Y-87238324D01*
X164557394Y-87283478D01*
X164572649Y-87287105D01*
X164623514Y-87292631D01*
X164630328Y-87293000D01*
X164827885Y-87293000D01*
X164843124Y-87288525D01*
X164844329Y-87287135D01*
X164846000Y-87279452D01*
X164846000Y-87274884D01*
X165354000Y-87274884D01*
X165358475Y-87290123D01*
X165359865Y-87291328D01*
X165367548Y-87292999D01*
X165569669Y-87292999D01*
X165576490Y-87292629D01*
X165627352Y-87287105D01*
X165642604Y-87283479D01*
X165763054Y-87238324D01*
X165778649Y-87229786D01*
X165880724Y-87153285D01*
X165893285Y-87140724D01*
X165969786Y-87038649D01*
X165978324Y-87023054D01*
X166023478Y-86902606D01*
X166027105Y-86887351D01*
X166032631Y-86836486D01*
X166033000Y-86829672D01*
X166033000Y-86632115D01*
X166028525Y-86616876D01*
X166027135Y-86615671D01*
X166019452Y-86614000D01*
X165372115Y-86614000D01*
X165356876Y-86618475D01*
X165355671Y-86619865D01*
X165354000Y-86627548D01*
X165354000Y-87274884D01*
X164846000Y-87274884D01*
X164846000Y-86415963D01*
X164866002Y-86347842D01*
X164919658Y-86301349D01*
X164989932Y-86291245D01*
X164994113Y-86291989D01*
X164995425Y-86292127D01*
X165001885Y-86293500D01*
X165198115Y-86293500D01*
X165204568Y-86292128D01*
X165204572Y-86292128D01*
X165294086Y-86273101D01*
X165390056Y-86252702D01*
X165396087Y-86250017D01*
X165563291Y-86175573D01*
X165563293Y-86175572D01*
X165569321Y-86172888D01*
X165628263Y-86130064D01*
X165695131Y-86106206D01*
X165702324Y-86106000D01*
X166014884Y-86106000D01*
X166030123Y-86101525D01*
X166031328Y-86100135D01*
X166032999Y-86092452D01*
X166032999Y-85890331D01*
X166032629Y-85883510D01*
X166027105Y-85832648D01*
X166023479Y-85817397D01*
X165990435Y-85729253D01*
X165985252Y-85658446D01*
X165988580Y-85646100D01*
X166018130Y-85555155D01*
X166038642Y-85360000D01*
X166018130Y-85164845D01*
X165957492Y-84978220D01*
X165946635Y-84959414D01*
X165925611Y-84923000D01*
X165921502Y-84906062D01*
X169458493Y-84906062D01*
X169467789Y-84918077D01*
X169518994Y-84953931D01*
X169528489Y-84959414D01*
X169725947Y-85051490D01*
X169736239Y-85055236D01*
X169946688Y-85111625D01*
X169957481Y-85113528D01*
X170174525Y-85132517D01*
X170185475Y-85132517D01*
X170402519Y-85113528D01*
X170413312Y-85111625D01*
X170623761Y-85055236D01*
X170634053Y-85051490D01*
X170831511Y-84959414D01*
X170841006Y-84953931D01*
X170893048Y-84917491D01*
X170901424Y-84907012D01*
X170894356Y-84893566D01*
X170192812Y-84192022D01*
X170178868Y-84184408D01*
X170177035Y-84184539D01*
X170170420Y-84188790D01*
X169464923Y-84894287D01*
X169458493Y-84906062D01*
X165921502Y-84906062D01*
X165908873Y-84854004D01*
X165925611Y-84797000D01*
X165954188Y-84747503D01*
X165954189Y-84747502D01*
X165957492Y-84741780D01*
X166018130Y-84555155D01*
X166019565Y-84541507D01*
X166037952Y-84366565D01*
X166038642Y-84360000D01*
X166026545Y-84244903D01*
X166018820Y-84171409D01*
X166018820Y-84171408D01*
X166018130Y-84164845D01*
X165957492Y-83978220D01*
X165869305Y-83825475D01*
X168867483Y-83825475D01*
X168886472Y-84042519D01*
X168888375Y-84053312D01*
X168944764Y-84263761D01*
X168948510Y-84274053D01*
X169040586Y-84471511D01*
X169046069Y-84481006D01*
X169082509Y-84533048D01*
X169092988Y-84541424D01*
X169106434Y-84534356D01*
X169807978Y-83832812D01*
X169814356Y-83821132D01*
X170544408Y-83821132D01*
X170544539Y-83822965D01*
X170548790Y-83829580D01*
X171254287Y-84535077D01*
X171266062Y-84541507D01*
X171278077Y-84532211D01*
X171313931Y-84481006D01*
X171319414Y-84471511D01*
X171411490Y-84274053D01*
X171415236Y-84263761D01*
X171471625Y-84053312D01*
X171473528Y-84042519D01*
X171485997Y-83900000D01*
X173946502Y-83900000D01*
X173966457Y-84128087D01*
X173967881Y-84133400D01*
X173967881Y-84133402D01*
X174010303Y-84291720D01*
X174025716Y-84349243D01*
X174028039Y-84354224D01*
X174028039Y-84354225D01*
X174120151Y-84551762D01*
X174120154Y-84551767D01*
X174122477Y-84556749D01*
X174173780Y-84630017D01*
X174247637Y-84735495D01*
X174253802Y-84744300D01*
X174415700Y-84906198D01*
X174420208Y-84909355D01*
X174420211Y-84909357D01*
X174491700Y-84959414D01*
X174603251Y-85037523D01*
X174608233Y-85039846D01*
X174608238Y-85039849D01*
X174762164Y-85111625D01*
X174810757Y-85134284D01*
X174816065Y-85135706D01*
X174816067Y-85135707D01*
X175026598Y-85192119D01*
X175026600Y-85192119D01*
X175031913Y-85193543D01*
X175260000Y-85213498D01*
X175488087Y-85193543D01*
X175493400Y-85192119D01*
X175493402Y-85192119D01*
X175703933Y-85135707D01*
X175703935Y-85135706D01*
X175709243Y-85134284D01*
X175757836Y-85111625D01*
X175911762Y-85039849D01*
X175911767Y-85039846D01*
X175916749Y-85037523D01*
X176028300Y-84959414D01*
X176099789Y-84909357D01*
X176099792Y-84909355D01*
X176104300Y-84906198D01*
X176266198Y-84744300D01*
X176272364Y-84735495D01*
X176346220Y-84630017D01*
X176397523Y-84556749D01*
X176399846Y-84551767D01*
X176399849Y-84551762D01*
X176491961Y-84354225D01*
X176491961Y-84354224D01*
X176494284Y-84349243D01*
X176509698Y-84291720D01*
X176552119Y-84133402D01*
X176552119Y-84133400D01*
X176553543Y-84128087D01*
X176573498Y-83900000D01*
X176553543Y-83671913D01*
X176536508Y-83608337D01*
X176495707Y-83456067D01*
X176495706Y-83456065D01*
X176494284Y-83450757D01*
X176469746Y-83398134D01*
X176468130Y-83394669D01*
X179072001Y-83394669D01*
X179072371Y-83401490D01*
X179077895Y-83452352D01*
X179081521Y-83467604D01*
X179126676Y-83588054D01*
X179135214Y-83603649D01*
X179211715Y-83705724D01*
X179224276Y-83718285D01*
X179326351Y-83794786D01*
X179341946Y-83803324D01*
X179462394Y-83848478D01*
X179477649Y-83852105D01*
X179528514Y-83857631D01*
X179535328Y-83858000D01*
X180107885Y-83858000D01*
X180123124Y-83853525D01*
X180124329Y-83852135D01*
X180126000Y-83844452D01*
X180126000Y-82822115D01*
X180121525Y-82806876D01*
X180120135Y-82805671D01*
X180112452Y-82804000D01*
X179090116Y-82804000D01*
X179074877Y-82808475D01*
X179073672Y-82809865D01*
X179072001Y-82817548D01*
X179072001Y-83394669D01*
X176468130Y-83394669D01*
X176399849Y-83248238D01*
X176399846Y-83248233D01*
X176397523Y-83243251D01*
X176301169Y-83105644D01*
X176269357Y-83060211D01*
X176269355Y-83060208D01*
X176266198Y-83055700D01*
X176104300Y-82893802D01*
X176099792Y-82890645D01*
X176099789Y-82890643D01*
X175976050Y-82804000D01*
X175916749Y-82762477D01*
X175911767Y-82760154D01*
X175911762Y-82760151D01*
X175714225Y-82668039D01*
X175714224Y-82668039D01*
X175709243Y-82665716D01*
X175703935Y-82664294D01*
X175703933Y-82664293D01*
X175493402Y-82607881D01*
X175493400Y-82607881D01*
X175488087Y-82606457D01*
X175260000Y-82586502D01*
X175031913Y-82606457D01*
X175026600Y-82607881D01*
X175026598Y-82607881D01*
X174816067Y-82664293D01*
X174816065Y-82664294D01*
X174810757Y-82665716D01*
X174805776Y-82668039D01*
X174805775Y-82668039D01*
X174608238Y-82760151D01*
X174608233Y-82760154D01*
X174603251Y-82762477D01*
X174543950Y-82804000D01*
X174420211Y-82890643D01*
X174420208Y-82890645D01*
X174415700Y-82893802D01*
X174253802Y-83055700D01*
X174250645Y-83060208D01*
X174250643Y-83060211D01*
X174218831Y-83105644D01*
X174122477Y-83243251D01*
X174120154Y-83248233D01*
X174120151Y-83248238D01*
X174050254Y-83398134D01*
X174025716Y-83450757D01*
X174024294Y-83456065D01*
X174024293Y-83456067D01*
X173983492Y-83608337D01*
X173966457Y-83671913D01*
X173946502Y-83900000D01*
X171485997Y-83900000D01*
X171492517Y-83825475D01*
X171492517Y-83814525D01*
X171473528Y-83597481D01*
X171471625Y-83586688D01*
X171415236Y-83376239D01*
X171411490Y-83365947D01*
X171319414Y-83168489D01*
X171313931Y-83158994D01*
X171277491Y-83106952D01*
X171267012Y-83098576D01*
X171253566Y-83105644D01*
X170552022Y-83807188D01*
X170544408Y-83821132D01*
X169814356Y-83821132D01*
X169815592Y-83818868D01*
X169815461Y-83817035D01*
X169811210Y-83810420D01*
X169105713Y-83104923D01*
X169093938Y-83098493D01*
X169081923Y-83107789D01*
X169046069Y-83158994D01*
X169040586Y-83168489D01*
X168948510Y-83365947D01*
X168944764Y-83376239D01*
X168888375Y-83586688D01*
X168886472Y-83597481D01*
X168867483Y-83814525D01*
X168867483Y-83825475D01*
X165869305Y-83825475D01*
X165859377Y-83808280D01*
X165852476Y-83800615D01*
X165732496Y-83667364D01*
X165732492Y-83667360D01*
X165728074Y-83662453D01*
X165721142Y-83657416D01*
X165574663Y-83550993D01*
X165574662Y-83550992D01*
X165569321Y-83547112D01*
X165563293Y-83544428D01*
X165563291Y-83544427D01*
X165396087Y-83469983D01*
X165396086Y-83469983D01*
X165390056Y-83467298D01*
X165294085Y-83446899D01*
X165204572Y-83427872D01*
X165204568Y-83427872D01*
X165198115Y-83426500D01*
X165001885Y-83426500D01*
X164995432Y-83427872D01*
X164995428Y-83427872D01*
X164905914Y-83446899D01*
X164809944Y-83467298D01*
X164803914Y-83469983D01*
X164803913Y-83469983D01*
X164636709Y-83544427D01*
X164636707Y-83544428D01*
X164630679Y-83547112D01*
X164625338Y-83550992D01*
X164625337Y-83550993D01*
X164478859Y-83657416D01*
X164471926Y-83662453D01*
X164458742Y-83677095D01*
X164398298Y-83714333D01*
X164327314Y-83712981D01*
X164268330Y-83673467D01*
X164240072Y-83608337D01*
X164239108Y-83592783D01*
X164239108Y-82732988D01*
X169458576Y-82732988D01*
X169465644Y-82746434D01*
X170167188Y-83447978D01*
X170181132Y-83455592D01*
X170182965Y-83455461D01*
X170189580Y-83451210D01*
X170895077Y-82745713D01*
X170901507Y-82733938D01*
X170892211Y-82721923D01*
X170841006Y-82686069D01*
X170831511Y-82680586D01*
X170634053Y-82588510D01*
X170623761Y-82584764D01*
X170413312Y-82528375D01*
X170402519Y-82526472D01*
X170185475Y-82507483D01*
X170174525Y-82507483D01*
X169957481Y-82526472D01*
X169946688Y-82528375D01*
X169736239Y-82584764D01*
X169725947Y-82588510D01*
X169528489Y-82680586D01*
X169518994Y-82686069D01*
X169466952Y-82722509D01*
X169458576Y-82732988D01*
X164239108Y-82732988D01*
X164239108Y-79723218D01*
X164259110Y-79655097D01*
X164312766Y-79608604D01*
X164383040Y-79598500D01*
X164423429Y-79611968D01*
X164428295Y-79615615D01*
X164564684Y-79666745D01*
X164626866Y-79673500D01*
X165573134Y-79673500D01*
X165635316Y-79666745D01*
X165771705Y-79615615D01*
X165888261Y-79528261D01*
X165975615Y-79411705D01*
X166026745Y-79275316D01*
X166033500Y-79213134D01*
X166033500Y-78740000D01*
X168866502Y-78740000D01*
X168886457Y-78968087D01*
X168887881Y-78973400D01*
X168887881Y-78973402D01*
X168940703Y-79170533D01*
X168945716Y-79189243D01*
X168948039Y-79194224D01*
X168948039Y-79194225D01*
X169040151Y-79391762D01*
X169040154Y-79391767D01*
X169042477Y-79396749D01*
X169090824Y-79465795D01*
X169161156Y-79566239D01*
X169173802Y-79584300D01*
X169335700Y-79746198D01*
X169340208Y-79749355D01*
X169340211Y-79749357D01*
X169386706Y-79781913D01*
X169523251Y-79877523D01*
X169528233Y-79879846D01*
X169528238Y-79879849D01*
X169725775Y-79971961D01*
X169730757Y-79974284D01*
X169736065Y-79975706D01*
X169736067Y-79975707D01*
X169946598Y-80032119D01*
X169946600Y-80032119D01*
X169951913Y-80033543D01*
X170180000Y-80053498D01*
X170408087Y-80033543D01*
X170413400Y-80032119D01*
X170413402Y-80032119D01*
X170623933Y-79975707D01*
X170623935Y-79975706D01*
X170629243Y-79974284D01*
X170634225Y-79971961D01*
X170831762Y-79879849D01*
X170831767Y-79879846D01*
X170836749Y-79877523D01*
X170973294Y-79781913D01*
X171019789Y-79749357D01*
X171019792Y-79749355D01*
X171024300Y-79746198D01*
X171186198Y-79584300D01*
X171198845Y-79566239D01*
X171269176Y-79465795D01*
X171317523Y-79396749D01*
X171319846Y-79391767D01*
X171319849Y-79391762D01*
X171411961Y-79194225D01*
X171411961Y-79194224D01*
X171414284Y-79189243D01*
X171419298Y-79170533D01*
X171472119Y-78973402D01*
X171472119Y-78973400D01*
X171473543Y-78968087D01*
X171493498Y-78740000D01*
X173946502Y-78740000D01*
X173966457Y-78968087D01*
X173967881Y-78973400D01*
X173967881Y-78973402D01*
X174020703Y-79170533D01*
X174025716Y-79189243D01*
X174028039Y-79194224D01*
X174028039Y-79194225D01*
X174120151Y-79391762D01*
X174120154Y-79391767D01*
X174122477Y-79396749D01*
X174170824Y-79465795D01*
X174241156Y-79566239D01*
X174253802Y-79584300D01*
X174415700Y-79746198D01*
X174420208Y-79749355D01*
X174420211Y-79749357D01*
X174466706Y-79781913D01*
X174603251Y-79877523D01*
X174608233Y-79879846D01*
X174608238Y-79879849D01*
X174805775Y-79971961D01*
X174810757Y-79974284D01*
X174816065Y-79975706D01*
X174816067Y-79975707D01*
X175026598Y-80032119D01*
X175026600Y-80032119D01*
X175031913Y-80033543D01*
X175260000Y-80053498D01*
X175488087Y-80033543D01*
X175493400Y-80032119D01*
X175493402Y-80032119D01*
X175575951Y-80010000D01*
X179026502Y-80010000D01*
X179046457Y-80238087D01*
X179047881Y-80243400D01*
X179047881Y-80243402D01*
X179063717Y-80302500D01*
X179105716Y-80459243D01*
X179108039Y-80464224D01*
X179108039Y-80464225D01*
X179200151Y-80661762D01*
X179200154Y-80661767D01*
X179202477Y-80666749D01*
X179333802Y-80854300D01*
X179495700Y-81016198D01*
X179500216Y-81019360D01*
X179500217Y-81019361D01*
X179508349Y-81025056D01*
X179552676Y-81080514D01*
X179559984Y-81151134D01*
X179527951Y-81214493D01*
X179469624Y-81248296D01*
X179469793Y-81248748D01*
X179467105Y-81249756D01*
X179465215Y-81250851D01*
X179462396Y-81251521D01*
X179341946Y-81296676D01*
X179326351Y-81305214D01*
X179224276Y-81381715D01*
X179211715Y-81394276D01*
X179135214Y-81496351D01*
X179126676Y-81511946D01*
X179081522Y-81632394D01*
X179077895Y-81647649D01*
X179072369Y-81698514D01*
X179072000Y-81705328D01*
X179072000Y-82277885D01*
X179076475Y-82293124D01*
X179077865Y-82294329D01*
X179085548Y-82296000D01*
X180508000Y-82296000D01*
X180576121Y-82316002D01*
X180622614Y-82369658D01*
X180634000Y-82422000D01*
X180634000Y-83839884D01*
X180638475Y-83855123D01*
X180639865Y-83856328D01*
X180647548Y-83857999D01*
X181224669Y-83857999D01*
X181231490Y-83857629D01*
X181282352Y-83852105D01*
X181297604Y-83848479D01*
X181418054Y-83803324D01*
X181433649Y-83794786D01*
X181535724Y-83718285D01*
X181548284Y-83705725D01*
X181548865Y-83704950D01*
X181549634Y-83704375D01*
X181554635Y-83699374D01*
X181555357Y-83700096D01*
X181605726Y-83662438D01*
X181676545Y-83657416D01*
X181738837Y-83691478D01*
X181750510Y-83704950D01*
X181756739Y-83713261D01*
X181873295Y-83800615D01*
X182009684Y-83851745D01*
X182071866Y-83858500D01*
X183768134Y-83858500D01*
X183830316Y-83851745D01*
X183966705Y-83800615D01*
X184083261Y-83713261D01*
X184170615Y-83596705D01*
X184221745Y-83460316D01*
X184228500Y-83398134D01*
X184228500Y-81701866D01*
X184221745Y-81639684D01*
X184170615Y-81503295D01*
X184083261Y-81386739D01*
X183966705Y-81299385D01*
X183830316Y-81248255D01*
X183783921Y-81243215D01*
X183718359Y-81215973D01*
X183677933Y-81157610D01*
X183675478Y-81086656D01*
X183716534Y-81021434D01*
X183727869Y-81011922D01*
X183881916Y-80857875D01*
X183888972Y-80849467D01*
X184013931Y-80671007D01*
X184019414Y-80661511D01*
X184111490Y-80464053D01*
X184115236Y-80453761D01*
X184161394Y-80281497D01*
X184161058Y-80267401D01*
X184153116Y-80264000D01*
X182752000Y-80264000D01*
X182683879Y-80243998D01*
X182637386Y-80190342D01*
X182626000Y-80138000D01*
X182626000Y-79737885D01*
X183134000Y-79737885D01*
X183138475Y-79753124D01*
X183139865Y-79754329D01*
X183147548Y-79756000D01*
X184147967Y-79756000D01*
X184161498Y-79752027D01*
X184162727Y-79743478D01*
X184115236Y-79566239D01*
X184111490Y-79555947D01*
X184019414Y-79358489D01*
X184013931Y-79348993D01*
X183888972Y-79170533D01*
X183881916Y-79162125D01*
X183727875Y-79008084D01*
X183719467Y-79001028D01*
X183541007Y-78876069D01*
X183531511Y-78870586D01*
X183334053Y-78778510D01*
X183323761Y-78774764D01*
X183151497Y-78728606D01*
X183137401Y-78728942D01*
X183134000Y-78736884D01*
X183134000Y-79737885D01*
X182626000Y-79737885D01*
X182626000Y-78742033D01*
X182622027Y-78728502D01*
X182613478Y-78727273D01*
X182436239Y-78774764D01*
X182425947Y-78778510D01*
X182228489Y-78870586D01*
X182218993Y-78876069D01*
X182040533Y-79001028D01*
X182032125Y-79008084D01*
X181878084Y-79162125D01*
X181871028Y-79170533D01*
X181746069Y-79348993D01*
X181740586Y-79358489D01*
X181724471Y-79393049D01*
X181677554Y-79446334D01*
X181609277Y-79465795D01*
X181541317Y-79445253D01*
X181496081Y-79393049D01*
X181479849Y-79358238D01*
X181479846Y-79358233D01*
X181477523Y-79353251D01*
X181377019Y-79209717D01*
X181349357Y-79170211D01*
X181349355Y-79170208D01*
X181346198Y-79165700D01*
X181184300Y-79003802D01*
X181179792Y-79000645D01*
X181179789Y-79000643D01*
X181101611Y-78945902D01*
X180996749Y-78872477D01*
X180991767Y-78870154D01*
X180991762Y-78870151D01*
X180794225Y-78778039D01*
X180794224Y-78778039D01*
X180789243Y-78775716D01*
X180783935Y-78774294D01*
X180783933Y-78774293D01*
X180573402Y-78717881D01*
X180573400Y-78717881D01*
X180568087Y-78716457D01*
X180340000Y-78696502D01*
X180111913Y-78716457D01*
X180106600Y-78717881D01*
X180106598Y-78717881D01*
X179896067Y-78774293D01*
X179896065Y-78774294D01*
X179890757Y-78775716D01*
X179885776Y-78778039D01*
X179885775Y-78778039D01*
X179688238Y-78870151D01*
X179688233Y-78870154D01*
X179683251Y-78872477D01*
X179578389Y-78945902D01*
X179500211Y-79000643D01*
X179500208Y-79000645D01*
X179495700Y-79003802D01*
X179333802Y-79165700D01*
X179330645Y-79170208D01*
X179330643Y-79170211D01*
X179302981Y-79209717D01*
X179202477Y-79353251D01*
X179200154Y-79358233D01*
X179200151Y-79358238D01*
X179120869Y-79528261D01*
X179105716Y-79560757D01*
X179104294Y-79566065D01*
X179104293Y-79566067D01*
X179062184Y-79723218D01*
X179046457Y-79781913D01*
X179026502Y-80010000D01*
X175575951Y-80010000D01*
X175703933Y-79975707D01*
X175703935Y-79975706D01*
X175709243Y-79974284D01*
X175714225Y-79971961D01*
X175911762Y-79879849D01*
X175911767Y-79879846D01*
X175916749Y-79877523D01*
X176053294Y-79781913D01*
X176099789Y-79749357D01*
X176099792Y-79749355D01*
X176104300Y-79746198D01*
X176266198Y-79584300D01*
X176278845Y-79566239D01*
X176349176Y-79465795D01*
X176397523Y-79396749D01*
X176399846Y-79391767D01*
X176399849Y-79391762D01*
X176491961Y-79194225D01*
X176491961Y-79194224D01*
X176494284Y-79189243D01*
X176499298Y-79170533D01*
X176552119Y-78973402D01*
X176552119Y-78973400D01*
X176553543Y-78968087D01*
X176573498Y-78740000D01*
X176553543Y-78511913D01*
X176494284Y-78290757D01*
X176483144Y-78266866D01*
X176399849Y-78088238D01*
X176399846Y-78088233D01*
X176397523Y-78083251D01*
X176305437Y-77951739D01*
X176269357Y-77900211D01*
X176269355Y-77900208D01*
X176266198Y-77895700D01*
X176104300Y-77733802D01*
X176099792Y-77730645D01*
X176099789Y-77730643D01*
X175985044Y-77650298D01*
X175916749Y-77602477D01*
X175911767Y-77600154D01*
X175911762Y-77600151D01*
X175714225Y-77508039D01*
X175714224Y-77508039D01*
X175709243Y-77505716D01*
X175703935Y-77504294D01*
X175703933Y-77504293D01*
X175493402Y-77447881D01*
X175493400Y-77447881D01*
X175488087Y-77446457D01*
X175260000Y-77426502D01*
X175031913Y-77446457D01*
X175026600Y-77447881D01*
X175026598Y-77447881D01*
X174816067Y-77504293D01*
X174816065Y-77504294D01*
X174810757Y-77505716D01*
X174805776Y-77508039D01*
X174805775Y-77508039D01*
X174608238Y-77600151D01*
X174608233Y-77600154D01*
X174603251Y-77602477D01*
X174534956Y-77650298D01*
X174420211Y-77730643D01*
X174420208Y-77730645D01*
X174415700Y-77733802D01*
X174253802Y-77895700D01*
X174250645Y-77900208D01*
X174250643Y-77900211D01*
X174214563Y-77951739D01*
X174122477Y-78083251D01*
X174120154Y-78088233D01*
X174120151Y-78088238D01*
X174036856Y-78266866D01*
X174025716Y-78290757D01*
X173966457Y-78511913D01*
X173946502Y-78740000D01*
X171493498Y-78740000D01*
X171473543Y-78511913D01*
X171414284Y-78290757D01*
X171403144Y-78266866D01*
X171319849Y-78088238D01*
X171319846Y-78088233D01*
X171317523Y-78083251D01*
X171225437Y-77951739D01*
X171189357Y-77900211D01*
X171189355Y-77900208D01*
X171186198Y-77895700D01*
X171024300Y-77733802D01*
X171019792Y-77730645D01*
X171019789Y-77730643D01*
X170905044Y-77650298D01*
X170836749Y-77602477D01*
X170831767Y-77600154D01*
X170831762Y-77600151D01*
X170634225Y-77508039D01*
X170634224Y-77508039D01*
X170629243Y-77505716D01*
X170623935Y-77504294D01*
X170623933Y-77504293D01*
X170413402Y-77447881D01*
X170413400Y-77447881D01*
X170408087Y-77446457D01*
X170180000Y-77426502D01*
X169951913Y-77446457D01*
X169946600Y-77447881D01*
X169946598Y-77447881D01*
X169736067Y-77504293D01*
X169736065Y-77504294D01*
X169730757Y-77505716D01*
X169725776Y-77508039D01*
X169725775Y-77508039D01*
X169528238Y-77600151D01*
X169528233Y-77600154D01*
X169523251Y-77602477D01*
X169454956Y-77650298D01*
X169340211Y-77730643D01*
X169340208Y-77730645D01*
X169335700Y-77733802D01*
X169173802Y-77895700D01*
X169170645Y-77900208D01*
X169170643Y-77900211D01*
X169134563Y-77951739D01*
X169042477Y-78083251D01*
X169040154Y-78088233D01*
X169040151Y-78088238D01*
X168956856Y-78266866D01*
X168945716Y-78290757D01*
X168886457Y-78511913D01*
X168866502Y-78740000D01*
X166033500Y-78740000D01*
X166033500Y-78266866D01*
X166026745Y-78204684D01*
X165990402Y-78107739D01*
X165985219Y-78036933D01*
X165988550Y-78024575D01*
X165992886Y-78011230D01*
X165993288Y-77997134D01*
X165986915Y-77994000D01*
X165980913Y-77994000D01*
X165912792Y-77973998D01*
X165892972Y-77958025D01*
X165888261Y-77951739D01*
X165771705Y-77864385D01*
X165635316Y-77813255D01*
X165627464Y-77812402D01*
X165627460Y-77812401D01*
X165579152Y-77807154D01*
X165576420Y-77806857D01*
X165510857Y-77779615D01*
X165470431Y-77721252D01*
X165467975Y-77650298D01*
X165504270Y-77589280D01*
X165538777Y-77566488D01*
X165563286Y-77555576D01*
X165563294Y-77555571D01*
X165569321Y-77552888D01*
X165628263Y-77510064D01*
X165695131Y-77486206D01*
X165702324Y-77486000D01*
X165980369Y-77486000D01*
X165993900Y-77482027D01*
X165994910Y-77475000D01*
X165959073Y-77364704D01*
X165953734Y-77352712D01*
X165925322Y-77303501D01*
X165908584Y-77234506D01*
X165925322Y-77177500D01*
X165954188Y-77127503D01*
X165954189Y-77127502D01*
X165957492Y-77121780D01*
X166018130Y-76935155D01*
X166038642Y-76740000D01*
X166018130Y-76544845D01*
X165957492Y-76358220D01*
X165859377Y-76188280D01*
X165728074Y-76042453D01*
X165569321Y-75927112D01*
X165563293Y-75924428D01*
X165563291Y-75924427D01*
X165396087Y-75849983D01*
X165396086Y-75849983D01*
X165390056Y-75847298D01*
X165294085Y-75826899D01*
X165204572Y-75807872D01*
X165204568Y-75807872D01*
X165198115Y-75806500D01*
X165001885Y-75806500D01*
X164995432Y-75807872D01*
X164995428Y-75807872D01*
X164905915Y-75826899D01*
X164809944Y-75847298D01*
X164803914Y-75849983D01*
X164803913Y-75849983D01*
X164636709Y-75924427D01*
X164636707Y-75924428D01*
X164630679Y-75927112D01*
X164471926Y-76042453D01*
X164458742Y-76057095D01*
X164398298Y-76094333D01*
X164327314Y-76092981D01*
X164268330Y-76053467D01*
X164240072Y-75988337D01*
X164239108Y-75972783D01*
X164239108Y-74826062D01*
X169458493Y-74826062D01*
X169467789Y-74838077D01*
X169518994Y-74873931D01*
X169528489Y-74879414D01*
X169725947Y-74971490D01*
X169736239Y-74975236D01*
X169946688Y-75031625D01*
X169957481Y-75033528D01*
X170174525Y-75052517D01*
X170185475Y-75052517D01*
X170402519Y-75033528D01*
X170413312Y-75031625D01*
X170623761Y-74975236D01*
X170634053Y-74971490D01*
X170831511Y-74879414D01*
X170841006Y-74873931D01*
X170893048Y-74837491D01*
X170901424Y-74827012D01*
X170900925Y-74826062D01*
X174538493Y-74826062D01*
X174547789Y-74838077D01*
X174598994Y-74873931D01*
X174608489Y-74879414D01*
X174805947Y-74971490D01*
X174816239Y-74975236D01*
X175026688Y-75031625D01*
X175037481Y-75033528D01*
X175254525Y-75052517D01*
X175265475Y-75052517D01*
X175482519Y-75033528D01*
X175493312Y-75031625D01*
X175703761Y-74975236D01*
X175714053Y-74971490D01*
X175911511Y-74879414D01*
X175921006Y-74873931D01*
X175973048Y-74837491D01*
X175981424Y-74827012D01*
X175974356Y-74813566D01*
X175272812Y-74112022D01*
X175258868Y-74104408D01*
X175257035Y-74104539D01*
X175250420Y-74108790D01*
X174544923Y-74814287D01*
X174538493Y-74826062D01*
X170900925Y-74826062D01*
X170894356Y-74813566D01*
X170192812Y-74112022D01*
X170178868Y-74104408D01*
X170177035Y-74104539D01*
X170170420Y-74108790D01*
X169464923Y-74814287D01*
X169458493Y-74826062D01*
X164239108Y-74826062D01*
X164239108Y-73745475D01*
X168867483Y-73745475D01*
X168886472Y-73962519D01*
X168888375Y-73973312D01*
X168944764Y-74183761D01*
X168948510Y-74194053D01*
X169040586Y-74391511D01*
X169046069Y-74401006D01*
X169082509Y-74453048D01*
X169092988Y-74461424D01*
X169106434Y-74454356D01*
X169807978Y-73752812D01*
X169814356Y-73741132D01*
X170544408Y-73741132D01*
X170544539Y-73742965D01*
X170548790Y-73749580D01*
X171254287Y-74455077D01*
X171266062Y-74461507D01*
X171278077Y-74452211D01*
X171313931Y-74401006D01*
X171319414Y-74391511D01*
X171411490Y-74194053D01*
X171415236Y-74183761D01*
X171471625Y-73973312D01*
X171473528Y-73962519D01*
X171492517Y-73745475D01*
X173947483Y-73745475D01*
X173966472Y-73962519D01*
X173968375Y-73973312D01*
X174024764Y-74183761D01*
X174028510Y-74194053D01*
X174120586Y-74391511D01*
X174126069Y-74401006D01*
X174162509Y-74453048D01*
X174172988Y-74461424D01*
X174186434Y-74454356D01*
X174887978Y-73752812D01*
X174894356Y-73741132D01*
X175624408Y-73741132D01*
X175624539Y-73742965D01*
X175628790Y-73749580D01*
X176334287Y-74455077D01*
X176346062Y-74461507D01*
X176358077Y-74452211D01*
X176393931Y-74401006D01*
X176399414Y-74391511D01*
X176491490Y-74194053D01*
X176495236Y-74183761D01*
X176551625Y-73973312D01*
X176553528Y-73962519D01*
X176572517Y-73745475D01*
X176572517Y-73734525D01*
X176553528Y-73517481D01*
X176551625Y-73506688D01*
X176495236Y-73296239D01*
X176491490Y-73285947D01*
X176399414Y-73088489D01*
X176393931Y-73078994D01*
X176357491Y-73026952D01*
X176347012Y-73018576D01*
X176333566Y-73025644D01*
X175632022Y-73727188D01*
X175624408Y-73741132D01*
X174894356Y-73741132D01*
X174895592Y-73738868D01*
X174895461Y-73737035D01*
X174891210Y-73730420D01*
X174185713Y-73024923D01*
X174173938Y-73018493D01*
X174161923Y-73027789D01*
X174126069Y-73078994D01*
X174120586Y-73088489D01*
X174028510Y-73285947D01*
X174024764Y-73296239D01*
X173968375Y-73506688D01*
X173966472Y-73517481D01*
X173947483Y-73734525D01*
X173947483Y-73745475D01*
X171492517Y-73745475D01*
X171492517Y-73734525D01*
X171473528Y-73517481D01*
X171471625Y-73506688D01*
X171415236Y-73296239D01*
X171411490Y-73285947D01*
X171319414Y-73088489D01*
X171313931Y-73078994D01*
X171277491Y-73026952D01*
X171267012Y-73018576D01*
X171253566Y-73025644D01*
X170552022Y-73727188D01*
X170544408Y-73741132D01*
X169814356Y-73741132D01*
X169815592Y-73738868D01*
X169815461Y-73737035D01*
X169811210Y-73730420D01*
X169105713Y-73024923D01*
X169093938Y-73018493D01*
X169081923Y-73027789D01*
X169046069Y-73078994D01*
X169040586Y-73088489D01*
X168948510Y-73285947D01*
X168944764Y-73296239D01*
X168888375Y-73506688D01*
X168886472Y-73517481D01*
X168867483Y-73734525D01*
X168867483Y-73745475D01*
X164239108Y-73745475D01*
X164239108Y-72652988D01*
X169458576Y-72652988D01*
X169465644Y-72666434D01*
X170167188Y-73367978D01*
X170181132Y-73375592D01*
X170182965Y-73375461D01*
X170189580Y-73371210D01*
X170895077Y-72665713D01*
X170901507Y-72653938D01*
X170900772Y-72652988D01*
X174538576Y-72652988D01*
X174545644Y-72666434D01*
X175247188Y-73367978D01*
X175261132Y-73375592D01*
X175262965Y-73375461D01*
X175269580Y-73371210D01*
X175975077Y-72665713D01*
X175981507Y-72653938D01*
X175972211Y-72641923D01*
X175921006Y-72606069D01*
X175911511Y-72600586D01*
X175714053Y-72508510D01*
X175703761Y-72504764D01*
X175493312Y-72448375D01*
X175482519Y-72446472D01*
X175265475Y-72427483D01*
X175254525Y-72427483D01*
X175037481Y-72446472D01*
X175026688Y-72448375D01*
X174816239Y-72504764D01*
X174805947Y-72508510D01*
X174608489Y-72600586D01*
X174598994Y-72606069D01*
X174546952Y-72642509D01*
X174538576Y-72652988D01*
X170900772Y-72652988D01*
X170892211Y-72641923D01*
X170841006Y-72606069D01*
X170831511Y-72600586D01*
X170634053Y-72508510D01*
X170623761Y-72504764D01*
X170413312Y-72448375D01*
X170402519Y-72446472D01*
X170185475Y-72427483D01*
X170174525Y-72427483D01*
X169957481Y-72446472D01*
X169946688Y-72448375D01*
X169736239Y-72504764D01*
X169725947Y-72508510D01*
X169528489Y-72600586D01*
X169518994Y-72606069D01*
X169466952Y-72642509D01*
X169458576Y-72652988D01*
X164239108Y-72652988D01*
X164239108Y-71407106D01*
X164259110Y-71338985D01*
X164312766Y-71292492D01*
X164365108Y-71281106D01*
X178930900Y-71281106D01*
X178999021Y-71301108D01*
G37*
%TD.AperFunction*%
%TD*%
M02*
