%TF.GenerationSoftware,KiCad,Pcbnew,6.0.0*%
%TF.CreationDate,2022-01-12T15:09:48-07:00*%
%TF.ProjectId,cr3-power-regulator,6372332d-706f-4776-9572-2d726567756c,rev?*%
%TF.SameCoordinates,Original*%
%TF.FileFunction,Legend,Top*%
%TF.FilePolarity,Positive*%
%FSLAX46Y46*%
G04 Gerber Fmt 4.6, Leading zero omitted, Abs format (unit mm)*
G04 Created by KiCad (PCBNEW 6.0.0) date 2022-01-12 15:09:48*
%MOMM*%
%LPD*%
G01*
G04 APERTURE LIST*
%ADD10C,0.150000*%
%ADD11C,0.100000*%
%ADD12C,0.120000*%
G04 APERTURE END LIST*
D10*
X167077142Y-81637142D02*
X167029523Y-81684761D01*
X166886666Y-81732380D01*
X166791428Y-81732380D01*
X166648571Y-81684761D01*
X166553333Y-81589523D01*
X166505714Y-81494285D01*
X166458095Y-81303809D01*
X166458095Y-81160952D01*
X166505714Y-80970476D01*
X166553333Y-80875238D01*
X166648571Y-80780000D01*
X166791428Y-80732380D01*
X166886666Y-80732380D01*
X167029523Y-80780000D01*
X167077142Y-80827619D01*
X168077142Y-81732380D02*
X167743809Y-81256190D01*
X167505714Y-81732380D02*
X167505714Y-80732380D01*
X167886666Y-80732380D01*
X167981904Y-80780000D01*
X168029523Y-80827619D01*
X168077142Y-80922857D01*
X168077142Y-81065714D01*
X168029523Y-81160952D01*
X167981904Y-81208571D01*
X167886666Y-81256190D01*
X167505714Y-81256190D01*
X168410476Y-80732380D02*
X169029523Y-80732380D01*
X168696190Y-81113333D01*
X168839047Y-81113333D01*
X168934285Y-81160952D01*
X168981904Y-81208571D01*
X169029523Y-81303809D01*
X169029523Y-81541904D01*
X168981904Y-81637142D01*
X168934285Y-81684761D01*
X168839047Y-81732380D01*
X168553333Y-81732380D01*
X168458095Y-81684761D01*
X168410476Y-81637142D01*
X170172380Y-80684761D02*
X169315238Y-81970476D01*
X170934285Y-81065714D02*
X170934285Y-81732380D01*
X170696190Y-80684761D02*
X170458095Y-81399047D01*
X171077142Y-81399047D01*
X172791428Y-81732380D02*
X172458095Y-81256190D01*
X172220000Y-81732380D02*
X172220000Y-80732380D01*
X172600952Y-80732380D01*
X172696190Y-80780000D01*
X172743809Y-80827619D01*
X172791428Y-80922857D01*
X172791428Y-81065714D01*
X172743809Y-81160952D01*
X172696190Y-81208571D01*
X172600952Y-81256190D01*
X172220000Y-81256190D01*
X173600952Y-81684761D02*
X173505714Y-81732380D01*
X173315238Y-81732380D01*
X173220000Y-81684761D01*
X173172380Y-81589523D01*
X173172380Y-81208571D01*
X173220000Y-81113333D01*
X173315238Y-81065714D01*
X173505714Y-81065714D01*
X173600952Y-81113333D01*
X173648571Y-81208571D01*
X173648571Y-81303809D01*
X173172380Y-81399047D01*
X174505714Y-81065714D02*
X174505714Y-81875238D01*
X174458095Y-81970476D01*
X174410476Y-82018095D01*
X174315238Y-82065714D01*
X174172380Y-82065714D01*
X174077142Y-82018095D01*
X174505714Y-81684761D02*
X174410476Y-81732380D01*
X174220000Y-81732380D01*
X174124761Y-81684761D01*
X174077142Y-81637142D01*
X174029523Y-81541904D01*
X174029523Y-81256190D01*
X174077142Y-81160952D01*
X174124761Y-81113333D01*
X174220000Y-81065714D01*
X174410476Y-81065714D01*
X174505714Y-81113333D01*
X175410476Y-81065714D02*
X175410476Y-81732380D01*
X174981904Y-81065714D02*
X174981904Y-81589523D01*
X175029523Y-81684761D01*
X175124761Y-81732380D01*
X175267619Y-81732380D01*
X175362857Y-81684761D01*
X175410476Y-81637142D01*
X176029523Y-81732380D02*
X175934285Y-81684761D01*
X175886666Y-81589523D01*
X175886666Y-80732380D01*
X176839047Y-81732380D02*
X176839047Y-81208571D01*
X176791428Y-81113333D01*
X176696190Y-81065714D01*
X176505714Y-81065714D01*
X176410476Y-81113333D01*
X176839047Y-81684761D02*
X176743809Y-81732380D01*
X176505714Y-81732380D01*
X176410476Y-81684761D01*
X176362857Y-81589523D01*
X176362857Y-81494285D01*
X176410476Y-81399047D01*
X176505714Y-81351428D01*
X176743809Y-81351428D01*
X176839047Y-81303809D01*
X177172380Y-81065714D02*
X177553333Y-81065714D01*
X177315238Y-80732380D02*
X177315238Y-81589523D01*
X177362857Y-81684761D01*
X177458095Y-81732380D01*
X177553333Y-81732380D01*
X178029523Y-81732380D02*
X177934285Y-81684761D01*
X177886666Y-81637142D01*
X177839047Y-81541904D01*
X177839047Y-81256190D01*
X177886666Y-81160952D01*
X177934285Y-81113333D01*
X178029523Y-81065714D01*
X178172380Y-81065714D01*
X178267619Y-81113333D01*
X178315238Y-81160952D01*
X178362857Y-81256190D01*
X178362857Y-81541904D01*
X178315238Y-81637142D01*
X178267619Y-81684761D01*
X178172380Y-81732380D01*
X178029523Y-81732380D01*
X178791428Y-81732380D02*
X178791428Y-81065714D01*
X178791428Y-81256190D02*
X178839047Y-81160952D01*
X178886666Y-81113333D01*
X178981904Y-81065714D01*
X179077142Y-81065714D01*
X167309046Y-87003484D02*
X167309046Y-87479674D01*
X166309046Y-87479674D01*
X166309046Y-86765388D02*
X166309046Y-86098722D01*
X167309046Y-86527293D01*
X167309046Y-85670150D02*
X167309046Y-85479674D01*
X167261427Y-85384436D01*
X167213808Y-85336817D01*
X167070951Y-85241579D01*
X166880475Y-85193960D01*
X166499523Y-85193960D01*
X166404285Y-85241579D01*
X166356666Y-85289198D01*
X166309046Y-85384436D01*
X166309046Y-85574912D01*
X166356666Y-85670150D01*
X166404285Y-85717769D01*
X166499523Y-85765388D01*
X166737618Y-85765388D01*
X166832856Y-85717769D01*
X166880475Y-85670150D01*
X166928094Y-85574912D01*
X166928094Y-85384436D01*
X166880475Y-85289198D01*
X166832856Y-85241579D01*
X166737618Y-85193960D01*
X167309046Y-84241579D02*
X167309046Y-84813007D01*
X167309046Y-84527293D02*
X166309046Y-84527293D01*
X166451904Y-84622531D01*
X166547142Y-84717769D01*
X166594761Y-84813007D01*
X166404285Y-83860626D02*
X166356666Y-83813007D01*
X166309046Y-83717769D01*
X166309046Y-83479674D01*
X166356666Y-83384436D01*
X166404285Y-83336817D01*
X166499523Y-83289198D01*
X166594761Y-83289198D01*
X166737618Y-83336817D01*
X167309046Y-83908246D01*
X167309046Y-83289198D01*
X167280661Y-79226122D02*
X167280661Y-79702312D01*
X166280661Y-79702312D01*
X166280661Y-78988026D02*
X166280661Y-78321360D01*
X167280661Y-78749931D01*
X166709233Y-77797550D02*
X166661614Y-77892788D01*
X166613995Y-77940407D01*
X166518757Y-77988026D01*
X166471138Y-77988026D01*
X166375900Y-77940407D01*
X166328281Y-77892788D01*
X166280661Y-77797550D01*
X166280661Y-77607074D01*
X166328281Y-77511836D01*
X166375900Y-77464217D01*
X166471138Y-77416598D01*
X166518757Y-77416598D01*
X166613995Y-77464217D01*
X166661614Y-77511836D01*
X166709233Y-77607074D01*
X166709233Y-77797550D01*
X166756852Y-77892788D01*
X166804471Y-77940407D01*
X166899709Y-77988026D01*
X167090185Y-77988026D01*
X167185423Y-77940407D01*
X167233042Y-77892788D01*
X167280661Y-77797550D01*
X167280661Y-77607074D01*
X167233042Y-77511836D01*
X167185423Y-77464217D01*
X167090185Y-77416598D01*
X166899709Y-77416598D01*
X166804471Y-77464217D01*
X166756852Y-77511836D01*
X166709233Y-77607074D01*
X167280661Y-76464217D02*
X167280661Y-77035645D01*
X167280661Y-76749931D02*
X166280661Y-76749931D01*
X166423519Y-76845169D01*
X166518757Y-76940407D01*
X166566376Y-77035645D01*
X166375900Y-76083264D02*
X166328281Y-76035645D01*
X166280661Y-75940407D01*
X166280661Y-75702312D01*
X166328281Y-75607074D01*
X166375900Y-75559455D01*
X166471138Y-75511836D01*
X166566376Y-75511836D01*
X166709233Y-75559455D01*
X167280661Y-76130884D01*
X167280661Y-75511836D01*
D11*
X184777142Y-79136428D02*
X184777142Y-78536428D01*
X185062857Y-78736428D02*
X185062857Y-79136428D01*
X185062857Y-78793571D02*
X185091428Y-78765000D01*
X185148571Y-78736428D01*
X185234285Y-78736428D01*
X185291428Y-78765000D01*
X185320000Y-78822142D01*
X185320000Y-79136428D01*
X185605714Y-78907857D02*
X186062857Y-78907857D01*
X185834285Y-79136428D02*
X185834285Y-78679285D01*
X184962857Y-79531000D02*
X184905714Y-79502428D01*
X184820000Y-79502428D01*
X184734285Y-79531000D01*
X184677142Y-79588142D01*
X184648571Y-79645285D01*
X184620000Y-79759571D01*
X184620000Y-79845285D01*
X184648571Y-79959571D01*
X184677142Y-80016714D01*
X184734285Y-80073857D01*
X184820000Y-80102428D01*
X184877142Y-80102428D01*
X184962857Y-80073857D01*
X184991428Y-80045285D01*
X184991428Y-79845285D01*
X184877142Y-79845285D01*
X185248571Y-80102428D02*
X185248571Y-79502428D01*
X185591428Y-80102428D01*
X185591428Y-79502428D01*
X185877142Y-80102428D02*
X185877142Y-79502428D01*
X186020000Y-79502428D01*
X186105714Y-79531000D01*
X186162857Y-79588142D01*
X186191428Y-79645285D01*
X186220000Y-79759571D01*
X186220000Y-79845285D01*
X186191428Y-79959571D01*
X186162857Y-80016714D01*
X186105714Y-80073857D01*
X186020000Y-80102428D01*
X185877142Y-80102428D01*
X184548571Y-80468428D02*
X184662857Y-80468428D01*
X184720000Y-80497000D01*
X184777142Y-80554142D01*
X184805714Y-80668428D01*
X184805714Y-80868428D01*
X184777142Y-80982714D01*
X184720000Y-81039857D01*
X184662857Y-81068428D01*
X184548571Y-81068428D01*
X184491428Y-81039857D01*
X184434285Y-80982714D01*
X184405714Y-80868428D01*
X184405714Y-80668428D01*
X184434285Y-80554142D01*
X184491428Y-80497000D01*
X184548571Y-80468428D01*
X185320000Y-80668428D02*
X185320000Y-81068428D01*
X185062857Y-80668428D02*
X185062857Y-80982714D01*
X185091428Y-81039857D01*
X185148571Y-81068428D01*
X185234285Y-81068428D01*
X185291428Y-81039857D01*
X185320000Y-81011285D01*
X185520000Y-80668428D02*
X185748571Y-80668428D01*
X185605714Y-80468428D02*
X185605714Y-80982714D01*
X185634285Y-81039857D01*
X185691428Y-81068428D01*
X185748571Y-81068428D01*
X185948571Y-80839857D02*
X186405714Y-80839857D01*
X186177142Y-81068428D02*
X186177142Y-80611285D01*
X184548571Y-81434428D02*
X184662857Y-81434428D01*
X184720000Y-81463000D01*
X184777142Y-81520142D01*
X184805714Y-81634428D01*
X184805714Y-81834428D01*
X184777142Y-81948714D01*
X184720000Y-82005857D01*
X184662857Y-82034428D01*
X184548571Y-82034428D01*
X184491428Y-82005857D01*
X184434285Y-81948714D01*
X184405714Y-81834428D01*
X184405714Y-81634428D01*
X184434285Y-81520142D01*
X184491428Y-81463000D01*
X184548571Y-81434428D01*
X185320000Y-81634428D02*
X185320000Y-82034428D01*
X185062857Y-81634428D02*
X185062857Y-81948714D01*
X185091428Y-82005857D01*
X185148571Y-82034428D01*
X185234285Y-82034428D01*
X185291428Y-82005857D01*
X185320000Y-81977285D01*
X185520000Y-81634428D02*
X185748571Y-81634428D01*
X185605714Y-81434428D02*
X185605714Y-81948714D01*
X185634285Y-82005857D01*
X185691428Y-82034428D01*
X185748571Y-82034428D01*
X185948571Y-81805857D02*
X186405714Y-81805857D01*
X184962857Y-82429000D02*
X184905714Y-82400428D01*
X184820000Y-82400428D01*
X184734285Y-82429000D01*
X184677142Y-82486142D01*
X184648571Y-82543285D01*
X184620000Y-82657571D01*
X184620000Y-82743285D01*
X184648571Y-82857571D01*
X184677142Y-82914714D01*
X184734285Y-82971857D01*
X184820000Y-83000428D01*
X184877142Y-83000428D01*
X184962857Y-82971857D01*
X184991428Y-82943285D01*
X184991428Y-82743285D01*
X184877142Y-82743285D01*
X185248571Y-83000428D02*
X185248571Y-82400428D01*
X185591428Y-83000428D01*
X185591428Y-82400428D01*
X185877142Y-83000428D02*
X185877142Y-82400428D01*
X186020000Y-82400428D01*
X186105714Y-82429000D01*
X186162857Y-82486142D01*
X186191428Y-82543285D01*
X186220000Y-82657571D01*
X186220000Y-82743285D01*
X186191428Y-82857571D01*
X186162857Y-82914714D01*
X186105714Y-82971857D01*
X186020000Y-83000428D01*
X185877142Y-83000428D01*
X184777142Y-83966428D02*
X184777142Y-83366428D01*
X185062857Y-83566428D02*
X185062857Y-83966428D01*
X185062857Y-83623571D02*
X185091428Y-83595000D01*
X185148571Y-83566428D01*
X185234285Y-83566428D01*
X185291428Y-83595000D01*
X185320000Y-83652142D01*
X185320000Y-83966428D01*
X185605714Y-83737857D02*
X186062857Y-83737857D01*
D10*
%TO.C,D4*%
X183332380Y-87098095D02*
X182332380Y-87098095D01*
X182332380Y-86860000D01*
X182380000Y-86717142D01*
X182475238Y-86621904D01*
X182570476Y-86574285D01*
X182760952Y-86526666D01*
X182903809Y-86526666D01*
X183094285Y-86574285D01*
X183189523Y-86621904D01*
X183284761Y-86717142D01*
X183332380Y-86860000D01*
X183332380Y-87098095D01*
X182665714Y-85669523D02*
X183332380Y-85669523D01*
X182284761Y-85907619D02*
X182999047Y-86145714D01*
X182999047Y-85526666D01*
%TO.C,C4*%
X175617142Y-86566666D02*
X175664761Y-86614285D01*
X175712380Y-86757142D01*
X175712380Y-86852380D01*
X175664761Y-86995238D01*
X175569523Y-87090476D01*
X175474285Y-87138095D01*
X175283809Y-87185714D01*
X175140952Y-87185714D01*
X174950476Y-87138095D01*
X174855238Y-87090476D01*
X174760000Y-86995238D01*
X174712380Y-86852380D01*
X174712380Y-86757142D01*
X174760000Y-86614285D01*
X174807619Y-86566666D01*
X175045714Y-85709523D02*
X175712380Y-85709523D01*
X174664761Y-85947619D02*
X175379047Y-86185714D01*
X175379047Y-85566666D01*
%TO.C,C3*%
X175617142Y-76406666D02*
X175664761Y-76454285D01*
X175712380Y-76597142D01*
X175712380Y-76692380D01*
X175664761Y-76835238D01*
X175569523Y-76930476D01*
X175474285Y-76978095D01*
X175283809Y-77025714D01*
X175140952Y-77025714D01*
X174950476Y-76978095D01*
X174855238Y-76930476D01*
X174760000Y-76835238D01*
X174712380Y-76692380D01*
X174712380Y-76597142D01*
X174760000Y-76454285D01*
X174807619Y-76406666D01*
X174712380Y-76073333D02*
X174712380Y-75454285D01*
X175093333Y-75787619D01*
X175093333Y-75644761D01*
X175140952Y-75549523D01*
X175188571Y-75501904D01*
X175283809Y-75454285D01*
X175521904Y-75454285D01*
X175617142Y-75501904D01*
X175664761Y-75549523D01*
X175712380Y-75644761D01*
X175712380Y-75930476D01*
X175664761Y-76025714D01*
X175617142Y-76073333D01*
%TO.C,C2*%
X170537142Y-86486666D02*
X170584761Y-86534285D01*
X170632380Y-86677142D01*
X170632380Y-86772380D01*
X170584761Y-86915238D01*
X170489523Y-87010476D01*
X170394285Y-87058095D01*
X170203809Y-87105714D01*
X170060952Y-87105714D01*
X169870476Y-87058095D01*
X169775238Y-87010476D01*
X169680000Y-86915238D01*
X169632380Y-86772380D01*
X169632380Y-86677142D01*
X169680000Y-86534285D01*
X169727619Y-86486666D01*
X169727619Y-86105714D02*
X169680000Y-86058095D01*
X169632380Y-85962857D01*
X169632380Y-85724761D01*
X169680000Y-85629523D01*
X169727619Y-85581904D01*
X169822857Y-85534285D01*
X169918095Y-85534285D01*
X170060952Y-85581904D01*
X170632380Y-86153333D01*
X170632380Y-85534285D01*
%TO.C,C1*%
X170537142Y-76406666D02*
X170584761Y-76454285D01*
X170632380Y-76597142D01*
X170632380Y-76692380D01*
X170584761Y-76835238D01*
X170489523Y-76930476D01*
X170394285Y-76978095D01*
X170203809Y-77025714D01*
X170060952Y-77025714D01*
X169870476Y-76978095D01*
X169775238Y-76930476D01*
X169680000Y-76835238D01*
X169632380Y-76692380D01*
X169632380Y-76597142D01*
X169680000Y-76454285D01*
X169727619Y-76406666D01*
X170632380Y-75454285D02*
X170632380Y-76025714D01*
X170632380Y-75740000D02*
X169632380Y-75740000D01*
X169775238Y-75835238D01*
X169870476Y-75930476D01*
X169918095Y-76025714D01*
%TO.C,D3*%
X180792380Y-87098095D02*
X179792380Y-87098095D01*
X179792380Y-86860000D01*
X179840000Y-86717142D01*
X179935238Y-86621904D01*
X180030476Y-86574285D01*
X180220952Y-86526666D01*
X180363809Y-86526666D01*
X180554285Y-86574285D01*
X180649523Y-86621904D01*
X180744761Y-86717142D01*
X180792380Y-86860000D01*
X180792380Y-87098095D01*
X179792380Y-86193333D02*
X179792380Y-85574285D01*
X180173333Y-85907619D01*
X180173333Y-85764761D01*
X180220952Y-85669523D01*
X180268571Y-85621904D01*
X180363809Y-85574285D01*
X180601904Y-85574285D01*
X180697142Y-85621904D01*
X180744761Y-85669523D01*
X180792380Y-85764761D01*
X180792380Y-86050476D01*
X180744761Y-86145714D01*
X180697142Y-86193333D01*
%TO.C,D2*%
X183332380Y-76938095D02*
X182332380Y-76938095D01*
X182332380Y-76700000D01*
X182380000Y-76557142D01*
X182475238Y-76461904D01*
X182570476Y-76414285D01*
X182760952Y-76366666D01*
X182903809Y-76366666D01*
X183094285Y-76414285D01*
X183189523Y-76461904D01*
X183284761Y-76557142D01*
X183332380Y-76700000D01*
X183332380Y-76938095D01*
X182427619Y-75985714D02*
X182380000Y-75938095D01*
X182332380Y-75842857D01*
X182332380Y-75604761D01*
X182380000Y-75509523D01*
X182427619Y-75461904D01*
X182522857Y-75414285D01*
X182618095Y-75414285D01*
X182760952Y-75461904D01*
X183332380Y-76033333D01*
X183332380Y-75414285D01*
%TO.C,D1*%
X180792380Y-76938095D02*
X179792380Y-76938095D01*
X179792380Y-76700000D01*
X179840000Y-76557142D01*
X179935238Y-76461904D01*
X180030476Y-76414285D01*
X180220952Y-76366666D01*
X180363809Y-76366666D01*
X180554285Y-76414285D01*
X180649523Y-76461904D01*
X180744761Y-76557142D01*
X180792380Y-76700000D01*
X180792380Y-76938095D01*
X180792380Y-75414285D02*
X180792380Y-75985714D01*
X180792380Y-75700000D02*
X179792380Y-75700000D01*
X179935238Y-75795238D01*
X180030476Y-75890476D01*
X180078095Y-75985714D01*
D12*
%TO.C,D4*%
X184040000Y-84840000D02*
X181800000Y-84840000D01*
X184040000Y-85080000D02*
X181800000Y-85080000D01*
X184040000Y-84960000D02*
X181800000Y-84960000D01*
X182920000Y-89130000D02*
X182920000Y-88480000D01*
X182920000Y-83590000D02*
X182920000Y-84240000D01*
X184040000Y-88480000D02*
X184040000Y-84240000D01*
X181800000Y-88480000D02*
X184040000Y-88480000D01*
X181800000Y-84240000D02*
X181800000Y-88480000D01*
X184040000Y-84240000D02*
X181800000Y-84240000D01*
%TO.C,C4*%
X176315000Y-83730000D02*
X176981000Y-83730000D01*
X173539000Y-83730000D02*
X174205000Y-83730000D01*
X176315000Y-89070000D02*
X176981000Y-89070000D01*
X173539000Y-89070000D02*
X174205000Y-89070000D01*
X176981000Y-89070000D02*
X176981000Y-83730000D01*
X173539000Y-89070000D02*
X173539000Y-83730000D01*
%TO.C,C3*%
X173539000Y-78910000D02*
X173539000Y-73570000D01*
X176981000Y-78910000D02*
X176981000Y-73570000D01*
X173539000Y-78910000D02*
X174205000Y-78910000D01*
X176315000Y-78910000D02*
X176981000Y-78910000D01*
X173539000Y-73570000D02*
X174205000Y-73570000D01*
X176315000Y-73570000D02*
X176981000Y-73570000D01*
%TO.C,C2*%
X169125000Y-88990000D02*
X168459000Y-88990000D01*
X171901000Y-88990000D02*
X171235000Y-88990000D01*
X169125000Y-83650000D02*
X168459000Y-83650000D01*
X171901000Y-83650000D02*
X171235000Y-83650000D01*
X168459000Y-83650000D02*
X168459000Y-88990000D01*
X171901000Y-83650000D02*
X171901000Y-88990000D01*
%TO.C,C1*%
X168459000Y-78910000D02*
X168459000Y-73570000D01*
X171901000Y-78910000D02*
X171901000Y-73570000D01*
X168459000Y-78910000D02*
X169125000Y-78910000D01*
X171235000Y-78910000D02*
X171901000Y-78910000D01*
X168459000Y-73570000D02*
X169125000Y-73570000D01*
X171235000Y-73570000D02*
X171901000Y-73570000D01*
%TO.C,U2*%
X165785000Y-87045000D02*
X165100000Y-87045000D01*
X165785000Y-86360000D02*
X165785000Y-87045000D01*
X161790000Y-84150000D02*
X163790000Y-84150000D01*
X161790000Y-84570000D02*
X161790000Y-84150000D01*
X163790000Y-84570000D02*
X161790000Y-84570000D01*
X164631785Y-84860000D02*
X163790000Y-84860000D01*
X161790000Y-85150000D02*
X163790000Y-85150000D01*
X161790000Y-85570000D02*
X161790000Y-85150000D01*
X163790000Y-85570000D02*
X161790000Y-85570000D01*
X164415000Y-85860000D02*
X163790000Y-85860000D01*
X163790000Y-86270000D02*
X161790000Y-86270000D01*
X163790000Y-86390000D02*
X161790000Y-86390000D01*
X163790000Y-86510000D02*
X161790000Y-86510000D01*
X161790000Y-86150000D02*
X163790000Y-86150000D01*
X161790000Y-86570000D02*
X161790000Y-86150000D01*
X163790000Y-86570000D02*
X161790000Y-86570000D01*
X163790000Y-83800000D02*
X164705507Y-83800000D01*
X163790000Y-86920000D02*
X163790000Y-83800000D01*
X164415000Y-86920000D02*
X163790000Y-86920000D01*
%TO.C,U1*%
X164415000Y-79300000D02*
X163790000Y-79300000D01*
X163790000Y-79300000D02*
X163790000Y-76180000D01*
X163790000Y-76180000D02*
X164705507Y-76180000D01*
X163790000Y-78950000D02*
X161790000Y-78950000D01*
X161790000Y-78950000D02*
X161790000Y-78530000D01*
X161790000Y-78530000D02*
X163790000Y-78530000D01*
X163790000Y-78890000D02*
X161790000Y-78890000D01*
X163790000Y-78770000D02*
X161790000Y-78770000D01*
X163790000Y-78650000D02*
X161790000Y-78650000D01*
X164415000Y-78240000D02*
X163790000Y-78240000D01*
X163790000Y-77950000D02*
X161790000Y-77950000D01*
X161790000Y-77950000D02*
X161790000Y-77530000D01*
X161790000Y-77530000D02*
X163790000Y-77530000D01*
X164631785Y-77240000D02*
X163790000Y-77240000D01*
X163790000Y-76950000D02*
X161790000Y-76950000D01*
X161790000Y-76950000D02*
X161790000Y-76530000D01*
X161790000Y-76530000D02*
X163790000Y-76530000D01*
X165785000Y-78740000D02*
X165785000Y-79425000D01*
X165785000Y-79425000D02*
X165100000Y-79425000D01*
%TO.C,J1*%
X188645000Y-78180000D02*
X189270000Y-78180000D01*
X189270000Y-78180000D02*
X189270000Y-84300000D01*
X189270000Y-84300000D02*
X188354493Y-84300000D01*
X189270000Y-78530000D02*
X191270000Y-78530000D01*
X191270000Y-78530000D02*
X191270000Y-78950000D01*
X191270000Y-78950000D02*
X189270000Y-78950000D01*
X189270000Y-78590000D02*
X191270000Y-78590000D01*
X189270000Y-78710000D02*
X191270000Y-78710000D01*
X189270000Y-78830000D02*
X191270000Y-78830000D01*
X188645000Y-79240000D02*
X189270000Y-79240000D01*
X189270000Y-79530000D02*
X191270000Y-79530000D01*
X191270000Y-79530000D02*
X191270000Y-79950000D01*
X191270000Y-79950000D02*
X189270000Y-79950000D01*
X188428215Y-80240000D02*
X189270000Y-80240000D01*
X189270000Y-80530000D02*
X191270000Y-80530000D01*
X191270000Y-80530000D02*
X191270000Y-80950000D01*
X191270000Y-80950000D02*
X189270000Y-80950000D01*
X188428215Y-81240000D02*
X189270000Y-81240000D01*
X189270000Y-81530000D02*
X191270000Y-81530000D01*
X191270000Y-81530000D02*
X191270000Y-81950000D01*
X191270000Y-81950000D02*
X189270000Y-81950000D01*
X188428215Y-82240000D02*
X189270000Y-82240000D01*
X189270000Y-82530000D02*
X191270000Y-82530000D01*
X191270000Y-82530000D02*
X191270000Y-82950000D01*
X191270000Y-82950000D02*
X189270000Y-82950000D01*
X188428215Y-83240000D02*
X189270000Y-83240000D01*
X189270000Y-83530000D02*
X191270000Y-83530000D01*
X191270000Y-83530000D02*
X191270000Y-83950000D01*
X191270000Y-83950000D02*
X189270000Y-83950000D01*
X187275000Y-78740000D02*
X187275000Y-78055000D01*
X187275000Y-78055000D02*
X187960000Y-78055000D01*
%TO.C,D3*%
X181500000Y-84840000D02*
X179260000Y-84840000D01*
X181500000Y-85080000D02*
X179260000Y-85080000D01*
X181500000Y-84960000D02*
X179260000Y-84960000D01*
X180380000Y-89130000D02*
X180380000Y-88480000D01*
X180380000Y-83590000D02*
X180380000Y-84240000D01*
X181500000Y-88480000D02*
X181500000Y-84240000D01*
X179260000Y-88480000D02*
X181500000Y-88480000D01*
X179260000Y-84240000D02*
X179260000Y-88480000D01*
X181500000Y-84240000D02*
X179260000Y-84240000D01*
%TO.C,D2*%
X184000000Y-74680000D02*
X181760000Y-74680000D01*
X184000000Y-74920000D02*
X181760000Y-74920000D01*
X184000000Y-74800000D02*
X181760000Y-74800000D01*
X182880000Y-78970000D02*
X182880000Y-78320000D01*
X182880000Y-73430000D02*
X182880000Y-74080000D01*
X184000000Y-78320000D02*
X184000000Y-74080000D01*
X181760000Y-78320000D02*
X184000000Y-78320000D01*
X181760000Y-74080000D02*
X181760000Y-78320000D01*
X184000000Y-74080000D02*
X181760000Y-74080000D01*
%TO.C,D1*%
X181460000Y-74680000D02*
X179220000Y-74680000D01*
X181460000Y-74920000D02*
X179220000Y-74920000D01*
X181460000Y-74800000D02*
X179220000Y-74800000D01*
X180340000Y-78970000D02*
X180340000Y-78320000D01*
X180340000Y-73430000D02*
X180340000Y-74080000D01*
X181460000Y-78320000D02*
X181460000Y-74080000D01*
X179220000Y-78320000D02*
X181460000Y-78320000D01*
X179220000Y-74080000D02*
X179220000Y-78320000D01*
X181460000Y-74080000D02*
X179220000Y-74080000D01*
%TD*%
M02*
